<?xml version="1.0" encoding="UTF-8" standalone="no"?>
<svg xmlns:rdf="http://www.w3.org/1999/02/22-rdf-syntax-ns#" xmlns="http://www.w3.org/2000/svg" height="5.4924mm" width="75mm" version="1.1" xmlns:cc="http://creativecommons.org/ns#" xmlns:dc="http://purl.org/dc/elements/1.1/" viewBox="0 0 265.74803 19.461327">
 <metadata>
  <rdf:RDF>
   <cc:Work rdf:about="">
    <dc:format>image/svg+xml</dc:format>
    <dc:type rdf:resource="http://purl.org/dc/dcmitype/StillImage"/>
    <dc:title/>
    <cc:license rdf:resource="http://creativecommons.org/licenses/by-nc-sa/3.0/"/>
    <dc:creator>
     <cc:Agent>
      <dc:title>Alexander Batischev</dc:title>
     </cc:Agent>
    </dc:creator>
    <dc:source>https://blog.debiania.in.ua</dc:source>
   </cc:Work>
   <cc:License rdf:about="http://creativecommons.org/licenses/by-nc-sa/3.0/">
    <cc:permits rdf:resource="http://creativecommons.org/ns#Reproduction"/>
    <cc:permits rdf:resource="http://creativecommons.org/ns#Distribution"/>
    <cc:requires rdf:resource="http://creativecommons.org/ns#Notice"/>
    <cc:requires rdf:resource="http://creativecommons.org/ns#Attribution"/>
    <cc:prohibits rdf:resource="http://creativecommons.org/ns#CommercialUse"/>
    <cc:permits rdf:resource="http://creativecommons.org/ns#DerivativeWorks"/>
    <cc:requires rdf:resource="http://creativecommons.org/ns#ShareAlike"/>
   </cc:License>
  </rdf:RDF>
 </metadata>
 <g transform="translate(-231.1 -771.75)" stroke="#000" fill="none">
  <g stroke-linejoin="round" transform="matrix(.24968 0 0 .24968 229.77 644.7)" stroke-linecap="round" stroke-width="3.916">
   <path d="m478.37 536.3a11.567 11.567 0 0 1 -11.567 11.567 11.567 11.567 0 0 1 -11.567 -11.567 11.567 11.567 0 0 1 11.567 -11.567 11.567 11.567 0 0 1 11.567 11.567zm17.867 0-14.717 25.491h-29.434l-14.717-25.491 14.717-25.491h29.434z"/>
   <path d="m549.06 536.3a11.567 11.567 0 0 1 -11.567 11.567 11.567 11.567 0 0 1 -11.567 -11.567 11.567 11.567 0 0 1 11.567 -11.567 11.567 11.567 0 0 1 11.567 11.567zm17.867 0-14.717 25.491h-29.434l-14.717-25.491 14.717-25.491h29.434z"/>
   <path d="m619.75 536.3a11.567 11.567 0 0 1 -11.567 11.567 11.567 11.567 0 0 1 -11.567 -11.567 11.567 11.567 0 0 1 11.567 -11.567 11.567 11.567 0 0 1 11.567 11.567zm17.867 0-14.717 25.491h-29.434l-14.717-25.491 14.717-25.491h29.434z"/>
  </g>
  <g transform="matrix(.48887 0 0 .48887 106.04 424.31)" stroke-width="2">
   <path stroke-linejoin="round" d="m273.96 738.86a4.8352 4.8352 0 0 1 -4.8352 4.8352 4.8352 4.8352 0 0 1 -4.8352 -4.8352 4.8352 4.8352 0 0 1 4.8352 -4.8352 4.8352 4.8352 0 0 1 4.8352 4.8352zm7.4686 0-6.1519 10.655h-12.304l-6.1519-10.655 6.1519-10.655h12.304z" stroke-linecap="round"/>
   <path d="m392.93 730.47c20.283-4.5651 15.281 3.0672 25.275 3.6669 3.4635 0.0226 7.5611-2.2738 8.7974-4.1956 0.26389-0.41019 0.15437-1.0504 0.15504-1.3574l-11.472 0.0611c-2.7231-3.6318-3.0092-7.7638-0.52194-11.501l13.25 0.0464c-0.22529-0.33008-0.0539-1.1318-0.29937-1.4372-2.3692-2.9485-6.1014-4.2261-10.709-4.0275-11.778 0.74396-4.9792 5.9917-26.309 11.202l-24.493 6.043c-23.649 5.3228-18.127-4.9102-29.78-5.6094-4.0384-0.0264-8.8161 2.6512-10.258 4.892-0.30768 0.47827-0.17999 1.2248-0.18076 1.5827l13.376-0.0712c3.1751 4.2346 3.5087 9.0525 0.60857 13.41l-15.449-0.0541c0.26268 0.38488 0.0629 1.3196 0.34909 1.6758 2.7625 3.4379 7.1141 4.9276 12.487 4.6961 13.734-0.86744 5.8057-6.9862 30.676-13.062l24.592-5.9024"/>
  </g>
  <g transform="matrix(-.48887 0 0 .48887 621.91 424.31)" stroke-width="2">
   <path stroke-linejoin="round" d="m273.96 738.86a4.8352 4.8352 0 0 1 -4.8352 4.8352 4.8352 4.8352 0 0 1 -4.8352 -4.8352 4.8352 4.8352 0 0 1 4.8352 -4.8352 4.8352 4.8352 0 0 1 4.8352 4.8352zm7.4686 0-6.1519 10.655h-12.304l-6.1519-10.655 6.1519-10.655h12.304z" stroke-linecap="round"/>
   <path d="m392.93 730.47c20.283-4.5651 15.281 3.0672 25.275 3.6669 3.4635 0.0226 7.5611-2.2738 8.7974-4.1956 0.26389-0.41019 0.15437-1.0504 0.15504-1.3574l-11.472 0.0611c-2.7231-3.6318-3.0092-7.7638-0.52194-11.501l13.25 0.0464c-0.22529-0.33008-0.0539-1.1318-0.29937-1.4372-2.3692-2.9485-6.1014-4.2261-10.709-4.0275-11.778 0.74396-4.9792 5.9917-26.309 11.202l-24.493 6.043c-23.649 5.3228-18.127-4.9102-29.78-5.6094-4.0384-0.0264-8.8161 2.6512-10.258 4.892-0.30768 0.47827-0.17999 1.2248-0.18076 1.5827l13.376-0.0712c3.1751 4.2346 3.5087 9.0525 0.60857 13.41l-15.449-0.0541c0.26268 0.38488 0.0629 1.3196 0.34909 1.6758 2.7625 3.4379 7.1141 4.9276 12.487 4.6961 13.734-0.86744 5.8057-6.9862 30.676-13.062l24.592-5.9024"/>
  </g>
 </g>
</svg>
