<?xml version="1.0" encoding="UTF-8" standalone="no"?>
<!-- Created with Inkscape (http://www.inkscape.org/) -->
<svg id="svg3247" xmlns:rdf="http://www.w3.org/1999/02/22-rdf-syntax-ns#" xmlns="http://www.w3.org/2000/svg" height="77.651" width="164.76" version="1.1" xmlns:cc="http://creativecommons.org/ns#" xmlns:dc="http://purl.org/dc/elements/1.1/">
 <title id="title3011">Debiania Blog Logo</title>
 <defs id="defs3249">
  <clipPath id="clipPath3187" clipPathUnits="userSpaceOnUse">
   <path id="path3189" d="m20.903 52.854 29.299-31.107 30.288 28.783-29.437 30.976z" stroke="#000" stroke-width="1px" fill="none"/>
  </clipPath>
  <clipPath id="clipPath3063" clipPathUnits="userSpaceOnUse">
   <path id="path3066" d="m74.069 28.108-45.201-0.19-0.19 47.101h45.771z" stroke="#000" stroke-width="1px" fill="none"/>
  </clipPath>
  <clipPath id="clipPath3080" clipPathUnits="userSpaceOnUse">
   <path id="path3082" d="m-95.652 196.34 42.76 0.12182 0.000003 27.41-42.76-0.12182z" stroke="#000" stroke-width=".24120px" fill="none"/>
  </clipPath>
 </defs>
 <metadata id="metadata3252">
  <rdf:RDF>
   <cc:Work rdf:about="">
    <dc:format>image/svg+xml</dc:format>
    <dc:type rdf:resource="http://purl.org/dc/dcmitype/StillImage"/>
    <dc:title>Debiania Blog Logo</dc:title>
    <cc:license rdf:resource="http://creativecommons.org/licenses/by-sa/3.0/"/>
    <dc:date>2012-12-17</dc:date>
    <dc:creator>
     <cc:Agent>
      <dc:title>Alexander Batischev</dc:title>
     </cc:Agent>
    </dc:creator>
    <dc:publisher>
     <cc:Agent>
      <dc:title>Alexander Batischev</dc:title>
     </cc:Agent>
    </dc:publisher>
    <dc:identifier>http://debiania.in.ua/images/debiania-logo-mainpage.svg</dc:identifier>
    <dc:subject>
     <rdf:Bag>
      <rdf:li>debiania</rdf:li>
      <rdf:li>logo</rdf:li>
     </rdf:Bag>
    </dc:subject>
   </cc:Work>
   <cc:License rdf:about="http://creativecommons.org/licenses/by-sa/3.0/">
    <cc:permits rdf:resource="http://creativecommons.org/ns#Reproduction"/>
    <cc:permits rdf:resource="http://creativecommons.org/ns#Distribution"/>
    <cc:requires rdf:resource="http://creativecommons.org/ns#Notice"/>
    <cc:requires rdf:resource="http://creativecommons.org/ns#Attribution"/>
    <cc:permits rdf:resource="http://creativecommons.org/ns#DerivativeWorks"/>
    <cc:requires rdf:resource="http://creativecommons.org/ns#ShareAlike"/>
   </cc:License>
  </rdf:RDF>
 </metadata>
 <a id="a3281" clip-path="url(#clipPath3080)" transform="matrix(4.1459 0 0 2.833 392.61 -556.33)">
  <g id="g3109" fill="#d70751" transform="matrix(.68887 .72489 -.72489 .68887 -71.738 140.1)" clip-path="url(#clipPath3187)">
   <path id="path3065" d="m51.986 57.297c-1.797 0.025 0.34 0.926 2.686 1.287 0.648-0.506 1.236-1.018 1.76-1.516-1.461 0.358-2.948 0.366-4.446 0.229"/>
   <path id="path3067" d="m61.631 54.893c1.07-1.477 1.85-3.094 2.125-4.766-0.24 1.192-0.887 2.221-1.496 3.307-3.359 2.115-0.316-1.256-0.002-2.537-3.612 4.546-0.496 2.726-0.627 3.996"/>
   <path id="path3069" d="m65.191 45.629c0.217-3.236-0.637-2.213-0.924-0.978 0.335 0.174 0.6 2.281 0.924 0.978"/>
   <path id="path3075" d="m48.075 70.867c-0.075-0.026-0.15-0.053-0.225-0.081-1.469-0.756-3.467-2.322-3.11-2.615 1.5336 0.5729 3.0757 1.0269 4.6177 1.3561l2.5181-2.635c-8.015-1.385-15.602-8.953-15.467-18.385-0.107 0.809-0.304 0.607-0.526 0.934-0.16712-2.1196 0.0902-4.2422 0.71699-6.2352l9.7875-10.242c5.4869-2.0299 11.559-0.73243 15.396 2.8426-2.301-3.014-6.881-6.209-12.309-5.91-0.05274 0.000833-0.10544 0.002-0.15811 0.0035l-16.267 17.014c-0.688 10.075 3.797 14.847 11.033 20.393 1.225 0.826 0.345 0.951 0.511 1.58-2.586-1.211-4.954-3.039-6.901-5.277 1.033 1.512 2.148 2.982 3.589 4.137-2.438-0.826-5.695-5.908-6.646-6.115 2.3946 4.2873 7.5958 7.9731 12.872 9.8307z" clip-path="url(#clipPath3063)"/>
   <path id="path3077" d="m32.372 59.764-0.252 1.26c1.181 1.604 2.118 3.342 3.626 4.596-1.085-2.118-1.891-2.993-3.374-5.856"/>
   <path id="path3079" d="m35.164 59.654c-0.625-0.691-0.995-1.523-1.409-2.352 0.396 1.457 1.207 2.709 1.962 3.982l-0.553-1.63"/>
  </g>
 </a>
</svg>
