<svg xmlns="http://www.w3.org/2000/svg" viewBox="0 0 164.76 77.651"><metadata id="license" xmlns:rdf="http://www.w3.org/1999/02/22-rdf-syntax-ns#" xmlns:dc="http://purl.org/dc/elements/1.1/" xmlns:cc="http://creativecommons.org/ns#"><rdf:RDF><cc:Work><cc:license rdf:resource="http://creativecommons.org/licenses/by-sa/3.0/" /><dc:description>This work is derived from the Debian Open Use Logo, available from https://www.debian.org/logos/ under the terms of the Creative Commons Attribution-ShareAlike 3.0 Unported License.</dc:description><dc:creator><cc:Agent><dc:title>Alexander Batischev</dc:title></cc:Agent></dc:creator></cc:Work></rdf:RDF></metadata><defs><clipPath id="a"><path d="m20.903 52.854l29.3-31.11 30.29 28.783-29.437 30.976z"/></clipPath><clipPath id="b"><path d="m74.07 28.11l-45.2-.19-.19 47.1h45.771z"/></clipPath><clipPath id="c"><path d="m-95.65 196.34l42.76.122v27.41l-42.76-.122z"/></clipPath></defs><a clip-path="url(#c)" transform="matrix(4.1459 0 0 2.833 392.61-556.33)"><g fill="#d70751" clip-path="url(#a)" transform="matrix(.68887.72489-.72489.68887-71.74 140.1)"><path d="m51.986 57.3c-1.797.025.34.926 2.686 1.287.648-.506 1.236-1.018 1.76-1.516-1.461.358-2.948.366-4.446.229"/><path d="m61.63 54.893c1.07-1.477 1.85-3.094 2.125-4.766-.24 1.192-.887 2.221-1.496 3.307-3.359 2.115-.316-1.256-.002-2.537-3.612 4.546-.496 2.726-.627 3.996"/><path d="m65.19 45.629c.217-3.236-.637-2.213-.924-.978.335.174.6 2.281.924.978"/><path d="m48.08 70.867c-.075-.026-.15-.053-.225-.081-1.469-.756-3.467-2.322-3.11-2.615 1.534.573 3.076 1.027 4.618 1.356l2.518-2.635c-8.02-1.385-15.602-8.953-15.467-18.385-.107.809-.304.607-.526.934-.167-2.12.09-4.242.717-6.235l9.788-10.242c5.487-2.03 11.559-.732 15.396 2.843-2.301-3.01-6.881-6.209-12.309-5.91-.053.001-.105.002-.158.003l-16.267 17.01c-.688 10.08 3.797 14.847 11.03 20.393 1.225.826.345.951.511 1.58-2.586-1.211-4.954-3.039-6.901-5.277 1.033 1.512 2.148 2.982 3.589 4.137-2.438-.826-5.695-5.908-6.646-6.115 2.395 4.287 7.596 7.973 12.872 9.831z" clip-path="url(#b)"/><path d="m32.372 59.764l-.252 1.26c1.181 1.604 2.118 3.342 3.626 4.596-1.085-2.118-1.891-2.993-3.374-5.856"/><path d="m35.16 59.654c-.625-.691-.995-1.523-1.409-2.352.396 1.457 1.207 2.709 1.962 3.982l-.553-1.63"/></g></a></svg>