<?xml version="1.0" encoding="UTF-8" standalone="no"?>
<svg
   xmlns:i="http://ns.adobe.com/AdobeIllustrator/10.0/"
   xmlns:dc="http://purl.org/dc/elements/1.1/"
   xmlns:cc="http://creativecommons.org/ns#"
   xmlns:rdf="http://www.w3.org/1999/02/22-rdf-syntax-ns#"
   xmlns:svg="http://www.w3.org/2000/svg"
   xmlns="http://www.w3.org/2000/svg"
   xmlns:sodipodi="http://sodipodi.sourceforge.net/DTD/sodipodi-0.dtd"
   xmlns:inkscape="http://www.inkscape.org/namespaces/inkscape"
   viewBox="0 0 80 15"
   version="1.1"
   id="svg490"
   sodipodi:docname="debian-button.svg"
   inkscape:version="1.0.2 (e86c870879, 2021-01-15)">
  <metadata
     id="metadata496">
    <rdf:RDF>
      <cc:Work
         rdf:about="">
        <dc:format>image/svg+xml</dc:format>
        <dc:type
           rdf:resource="http://purl.org/dc/dcmitype/StillImage" />
        <dc:title></dc:title>
      </cc:Work>
    </rdf:RDF>
  </metadata>
  <defs
     id="defs494">
    <rect
       x="27.125032"
       y="3.127069"
       width="44.05846"
       height="9.0435357"
       id="rect2620" />
    <rect
       x="28.020716"
       y="3.6026118"
       width="48.841185"
       height="8.2703187"
       id="rect1947" />
    <rect
       x="18.540092"
       y="-11.212882"
       width="34.217604"
       height="14.077195"
       id="rect1570" />
  </defs>
  <sodipodi:namedview
     pagecolor="#ffffff"
     bordercolor="#666666"
     borderopacity="1"
     objecttolerance="10"
     gridtolerance="10"
     guidetolerance="10"
     inkscape:pageopacity="0"
     inkscape:pageshadow="2"
     inkscape:window-width="1920"
     inkscape:window-height="1033"
     id="namedview492"
     showgrid="false"
     inkscape:zoom="15"
     inkscape:cx="37.145357"
     inkscape:cy="8.5018902"
     inkscape:window-x="0"
     inkscape:window-y="0"
     inkscape:window-maximized="1"
     inkscape:current-layer="svg490" />
  <g
     id="Layer_1"
     i:layer="yes"
     i:dimmedPercent="50"
     i:rgbTrio="#4F008000FFFF"
     transform="matrix(0.14676862,0,0,0.14676862,7.2232916,1.3707018)">
    <g
       id="g107">
      <path
         id="path83"
         style="color:#000000;font-style:normal;font-variant:normal;font-weight:normal;font-stretch:normal;font-size:medium;line-height:normal;font-family:sans-serif;font-variant-ligatures:normal;font-variant-position:normal;font-variant-caps:normal;font-variant-numeric:normal;font-variant-alternates:normal;font-variant-east-asian:normal;font-feature-settings:normal;font-variation-settings:normal;text-indent:0;text-align:start;text-decoration:none;text-decoration-line:none;text-decoration-style:solid;text-decoration-color:#000000;letter-spacing:normal;word-spacing:normal;text-transform:none;writing-mode:lr-tb;direction:ltr;text-orientation:mixed;dominant-baseline:auto;baseline-shift:baseline;text-anchor:start;white-space:normal;shape-padding:0;shape-margin:0;inline-size:0;clip-rule:nonzero;display:inline;overflow:visible;visibility:visible;opacity:1;isolation:auto;mix-blend-mode:normal;color-interpolation:sRGB;color-interpolation-filters:linearRGB;solid-color:#000000;solid-opacity:1;vector-effect:none;fill:#a80030;fill-opacity:1;fill-rule:nonzero;stroke:none;stroke-width:1;stroke-linecap:butt;stroke-linejoin:miter;stroke-miterlimit:4;stroke-dasharray:none;stroke-dashoffset:0;stroke-opacity:1;color-rendering:auto;image-rendering:auto;shape-rendering:auto;text-rendering:auto;enable-background:accumulate;stop-color:#000000;stop-opacity:1"
         d="m 51.986,57.297 c 2.549608,3.132529 3.737381,-2.251811 0,0 z" />
      <path
         id="path85"
         style="color:#000000;font-style:normal;font-variant:normal;font-weight:normal;font-stretch:normal;font-size:medium;line-height:normal;font-family:sans-serif;font-variant-ligatures:normal;font-variant-position:normal;font-variant-caps:normal;font-variant-numeric:normal;font-variant-alternates:normal;font-variant-east-asian:normal;font-feature-settings:normal;font-variation-settings:normal;text-indent:0;text-align:start;text-decoration:none;text-decoration-line:none;text-decoration-style:solid;text-decoration-color:#000000;letter-spacing:normal;word-spacing:normal;text-transform:none;writing-mode:lr-tb;direction:ltr;text-orientation:mixed;dominant-baseline:auto;baseline-shift:baseline;text-anchor:start;white-space:normal;shape-padding:0;shape-margin:0;inline-size:0;clip-rule:nonzero;display:inline;overflow:visible;visibility:visible;opacity:1;isolation:auto;mix-blend-mode:normal;color-interpolation:sRGB;color-interpolation-filters:linearRGB;solid-color:#000000;solid-opacity:1;vector-effect:none;fill:#a80030;fill-opacity:1;fill-rule:nonzero;stroke:none;stroke-width:1;stroke-linecap:butt;stroke-linejoin:miter;stroke-miterlimit:4;stroke-dasharray:none;stroke-dashoffset:0;stroke-opacity:1;color-rendering:auto;image-rendering:auto;shape-rendering:auto;text-rendering:auto;enable-background:accumulate;stop-color:#000000;stop-opacity:1"
         d="m 61.631,54.893 c 1.464478,-0.279332 0.769222,-3.678028 0.07809,-1.076866 C 62.573199,49.760695 58.611943,55.02359 61.631,54.893 Z" />
      <path
         id="path87"
         style="color:#000000;font-style:normal;font-variant:normal;font-weight:normal;font-stretch:normal;font-size:medium;line-height:normal;font-family:sans-serif;font-variant-ligatures:normal;font-variant-position:normal;font-variant-caps:normal;font-variant-numeric:normal;font-variant-alternates:normal;font-variant-east-asian:normal;font-feature-settings:normal;font-variation-settings:normal;text-indent:0;text-align:start;text-decoration:none;text-decoration-line:none;text-decoration-style:solid;text-decoration-color:#000000;letter-spacing:normal;word-spacing:normal;text-transform:none;writing-mode:lr-tb;direction:ltr;text-orientation:mixed;dominant-baseline:auto;baseline-shift:baseline;text-anchor:start;white-space:normal;shape-padding:0;shape-margin:0;inline-size:0;clip-rule:nonzero;display:inline;overflow:visible;visibility:visible;opacity:1;isolation:auto;mix-blend-mode:normal;color-interpolation:sRGB;color-interpolation-filters:linearRGB;solid-color:#000000;solid-opacity:1;vector-effect:none;fill:#a80030;fill-opacity:1;fill-rule:nonzero;stroke:none;stroke-width:1;stroke-linecap:butt;stroke-linejoin:miter;stroke-miterlimit:4;stroke-dasharray:none;stroke-dashoffset:0;stroke-opacity:1;color-rendering:auto;image-rendering:auto;shape-rendering:auto;text-rendering:auto;enable-background:accumulate;stop-color:#000000;stop-opacity:1"
         d="m 65.191,45.629 c 2.813795,-2.868868 -3.285959,-1.727716 0,0 z" />
      <path
         id="path91"
         style="color:#000000;font-style:normal;font-variant:normal;font-weight:normal;font-stretch:normal;font-size:medium;line-height:normal;font-family:sans-serif;font-variant-ligatures:normal;font-variant-position:normal;font-variant-caps:normal;font-variant-numeric:normal;font-variant-alternates:normal;font-variant-east-asian:normal;font-feature-settings:normal;font-variation-settings:normal;text-indent:0;text-align:start;text-decoration:none;text-decoration-line:none;text-decoration-style:solid;text-decoration-color:#000000;letter-spacing:normal;word-spacing:normal;text-transform:none;writing-mode:lr-tb;direction:ltr;text-orientation:mixed;dominant-baseline:auto;baseline-shift:baseline;text-anchor:start;white-space:normal;shape-padding:0;shape-margin:0;inline-size:0;clip-rule:nonzero;display:inline;overflow:visible;visibility:visible;opacity:1;isolation:auto;mix-blend-mode:normal;color-interpolation:sRGB;color-interpolation-filters:linearRGB;solid-color:#000000;solid-opacity:1;vector-effect:none;fill:#a80030;fill-opacity:1;fill-rule:nonzero;stroke:none;stroke-width:1;stroke-linecap:butt;stroke-linejoin:miter;stroke-miterlimit:4;stroke-dasharray:none;stroke-dashoffset:0;stroke-opacity:1;color-rendering:auto;image-rendering:auto;shape-rendering:auto;text-rendering:auto;enable-background:accumulate;stop-color:#000000;stop-opacity:1"
         d="m 47.088,1.932 c -0.05434,0.01281 -0.05434,0.01281 0,0 z" />
      <path
         id="path93"
         style="color:#000000;font-style:normal;font-variant:normal;font-weight:normal;font-stretch:normal;font-size:medium;line-height:normal;font-family:sans-serif;font-variant-ligatures:normal;font-variant-position:normal;font-variant-caps:normal;font-variant-numeric:normal;font-variant-alternates:normal;font-variant-east-asian:normal;font-feature-settings:normal;font-variation-settings:normal;text-indent:0;text-align:start;text-decoration:none;text-decoration-line:none;text-decoration-style:solid;text-decoration-color:#000000;letter-spacing:normal;word-spacing:normal;text-transform:none;writing-mode:lr-tb;direction:ltr;text-orientation:mixed;dominant-baseline:auto;baseline-shift:baseline;text-anchor:start;white-space:normal;shape-padding:0;shape-margin:0;inline-size:0;clip-rule:nonzero;display:inline;overflow:visible;visibility:visible;opacity:1;isolation:auto;mix-blend-mode:normal;color-interpolation:sRGB;color-interpolation-filters:linearRGB;solid-color:#000000;solid-opacity:1;vector-effect:none;fill:#a80030;fill-opacity:1;fill-rule:nonzero;stroke:none;stroke-width:1;stroke-linecap:butt;stroke-linejoin:miter;stroke-miterlimit:4;stroke-dasharray:none;stroke-dashoffset:0;stroke-opacity:1;color-rendering:auto;image-rendering:auto;shape-rendering:auto;text-rendering:auto;enable-background:accumulate;stop-color:#000000;stop-opacity:1"
         d="M 76.992,46.856 C 75.618666,60.135996 60.380547,70.629423 47.633592,65.673064 37.874672,61.363053 32.550955,47.820011 38.793626,38.61938 c 4.920835,-7.079676 16.209858,-8.964844 22.780769,-3.121892 -5.988249,-8.382806 -20.763304,-6.808301 -25.074014,2.466065 -6.518089,8.497095 -3.597807,22.209844 5.567416,27.598299 2.954802,4.882615 -8.856451,-4.081064 -3.470889,0.672472 5.045825,4.608909 12.200198,7.476087 19.048859,5.955975 -2.509587,0.390093 -10.719399,-0.307434 -8.85079,-2.746892 13.279137,3.415546 28.116086,-5.23991 32.277121,-18.178582 4.243748,-6.358539 3.09781,-14.510412 0.849194,-21.355371 0.205234,-6.42645 4.281706,2.630851 4.260869,1.843419 C 85.333928,21.303425 78.60001,11.492992 68.788975,7.5456555 60.362675,3.4643956 50.925505,2.879117 41.803747,1.635065 37.15429,0.95941076 32.610759,2.433403 28.621034,4.7317004 21.25124,8.3351296 14.317182,13.317285 10.020121,20.456375 5.2817377,27.591637 0.83954967,35.503532 0.73716876,44.303824 0.32325247,52.505674 0.97853153,60.80378 2.5517559,68.847997 4.7280561,76.378242 8.6335575,83.253306 12.780769,89.85166 17.191949,94.362998 22.30301,85.248662 16.468252,83.450009 13.802518,78.596096 14.033026,72.213639 9.0261137,68.813594 5.9183971,63.918946 6.7705447,57.838333 6.0707108,52.347409 6.2847641,42.788726 8.954821,32.718158 15.600402,25.606829 24.766296,18.735915 34.594445,10.835682 46.617258,10.64538 56.69406,9.931425 66.856809,15.09739 72.007443,23.832666 76.381196,30.702503 78.029261,39.260538 76.483129,47.259544 76.690247,48.020167 77.65975,47.23403 76.992,46.856 Z" />
      <path
         id="path95"
         style="color:#000000;font-style:normal;font-variant:normal;font-weight:normal;font-stretch:normal;font-size:medium;line-height:normal;font-family:sans-serif;font-variant-ligatures:normal;font-variant-position:normal;font-variant-caps:normal;font-variant-numeric:normal;font-variant-alternates:normal;font-variant-east-asian:normal;font-feature-settings:normal;font-variation-settings:normal;text-indent:0;text-align:start;text-decoration:none;text-decoration-line:none;text-decoration-style:solid;text-decoration-color:#000000;letter-spacing:normal;word-spacing:normal;text-transform:none;writing-mode:lr-tb;direction:ltr;text-orientation:mixed;dominant-baseline:auto;baseline-shift:baseline;text-anchor:start;white-space:normal;shape-padding:0;shape-margin:0;inline-size:0;clip-rule:nonzero;display:inline;overflow:visible;visibility:visible;opacity:1;isolation:auto;mix-blend-mode:normal;color-interpolation:sRGB;color-interpolation-filters:linearRGB;solid-color:#000000;solid-opacity:1;vector-effect:none;fill:#a80030;fill-opacity:1;fill-rule:nonzero;stroke:none;stroke-width:1;stroke-linecap:butt;stroke-linejoin:miter;stroke-miterlimit:4;stroke-dasharray:none;stroke-dashoffset:0;stroke-opacity:1;color-rendering:auto;image-rendering:auto;shape-rendering:auto;text-rendering:auto;enable-background:accumulate;stop-color:#000000;stop-opacity:1"
         d="m 32.372,59.764 c -1.585753,2.577906 3.906045,4.251383 0.64648,1.099181 C 32.733949,60.540002 32.580971,60.134964 32.372,59.764 Z" />
      <path
         id="path97"
         style="color:#000000;font-style:normal;font-variant:normal;font-weight:normal;font-stretch:normal;font-size:medium;line-height:normal;font-family:sans-serif;font-variant-ligatures:normal;font-variant-position:normal;font-variant-caps:normal;font-variant-numeric:normal;font-variant-alternates:normal;font-variant-east-asian:normal;font-feature-settings:normal;font-variation-settings:normal;text-indent:0;text-align:start;text-decoration:none;text-decoration-line:none;text-decoration-style:solid;text-decoration-color:#000000;letter-spacing:normal;word-spacing:normal;text-transform:none;writing-mode:lr-tb;direction:ltr;text-orientation:mixed;dominant-baseline:auto;baseline-shift:baseline;text-anchor:start;white-space:normal;shape-padding:0;shape-margin:0;inline-size:0;clip-rule:nonzero;display:inline;overflow:visible;visibility:visible;opacity:1;isolation:auto;mix-blend-mode:normal;color-interpolation:sRGB;color-interpolation-filters:linearRGB;solid-color:#000000;solid-opacity:1;vector-effect:none;fill:#a80030;fill-opacity:1;fill-rule:nonzero;stroke:none;stroke-width:1;stroke-linecap:butt;stroke-linejoin:miter;stroke-miterlimit:4;stroke-dasharray:none;stroke-dashoffset:0;stroke-opacity:1;color-rendering:auto;image-rendering:auto;shape-rendering:auto;text-rendering:auto;enable-background:accumulate;stop-color:#000000;stop-opacity:1"
         d="m 35.164,59.654 c -1.135206,-2.671772 0.32205,2.198934 0,0 z" />
      <path
         id="path99"
         style="color:#000000;font-style:normal;font-variant:normal;font-weight:normal;font-stretch:normal;font-size:medium;line-height:normal;font-family:sans-serif;font-variant-ligatures:normal;font-variant-position:normal;font-variant-caps:normal;font-variant-numeric:normal;font-variant-alternates:normal;font-variant-east-asian:normal;font-feature-settings:normal;font-variation-settings:normal;text-indent:0;text-align:start;text-decoration:none;text-decoration-line:none;text-decoration-style:solid;text-decoration-color:#000000;letter-spacing:normal;word-spacing:normal;text-transform:none;writing-mode:lr-tb;direction:ltr;text-orientation:mixed;dominant-baseline:auto;baseline-shift:baseline;text-anchor:start;white-space:normal;shape-padding:0;shape-margin:0;inline-size:0;clip-rule:nonzero;display:inline;overflow:visible;visibility:visible;opacity:1;isolation:auto;mix-blend-mode:normal;color-interpolation:sRGB;color-interpolation-filters:linearRGB;solid-color:#000000;solid-opacity:1;vector-effect:none;fill:#a80030;fill-opacity:1;fill-rule:nonzero;stroke:none;stroke-width:1;stroke-linecap:butt;stroke-linejoin:miter;stroke-miterlimit:4;stroke-dasharray:none;stroke-dashoffset:0;stroke-opacity:1;color-rendering:auto;image-rendering:auto;shape-rendering:auto;text-rendering:auto;enable-background:accumulate;stop-color:#000000;stop-opacity:1"
         d="m 83.913294,52.369218 c -88.752532,-41.138947 -44.376266,-20.569473 0,0 z"
         sodipodi:nodetypes="cc" />
      <path
         id="path103"
         style="color:#000000;font-style:normal;font-variant:normal;font-weight:normal;font-stretch:normal;font-size:medium;line-height:normal;font-family:sans-serif;font-variant-ligatures:normal;font-variant-position:normal;font-variant-caps:normal;font-variant-numeric:normal;font-variant-alternates:normal;font-variant-east-asian:normal;font-feature-settings:normal;font-variation-settings:normal;text-indent:0;text-align:start;text-decoration:none;text-decoration-line:none;text-decoration-style:solid;text-decoration-color:#000000;letter-spacing:normal;word-spacing:normal;text-transform:none;writing-mode:lr-tb;direction:ltr;text-orientation:mixed;dominant-baseline:auto;baseline-shift:baseline;text-anchor:start;white-space:normal;shape-padding:0;shape-margin:0;inline-size:0;clip-rule:nonzero;display:inline;overflow:visible;visibility:visible;opacity:1;isolation:auto;mix-blend-mode:normal;color-interpolation:sRGB;color-interpolation-filters:linearRGB;solid-color:#000000;solid-opacity:1;vector-effect:none;fill:#a80030;fill-opacity:1;fill-rule:nonzero;stroke:none;stroke-width:1;stroke-linecap:butt;stroke-linejoin:miter;stroke-miterlimit:4;stroke-dasharray:none;stroke-dashoffset:0;stroke-opacity:1;color-rendering:auto;image-rendering:auto;shape-rendering:auto;text-rendering:auto;enable-background:accumulate;stop-color:#000000;stop-opacity:1"
         d="m 2.872,23.219 c -3.42902817,3.513843 2.9468779,1.830581 0,0 z" />
      <path
         id="path105"
         style="color:#000000;font-style:normal;font-variant:normal;font-weight:normal;font-stretch:normal;font-size:medium;line-height:normal;font-family:sans-serif;font-variant-ligatures:normal;font-variant-position:normal;font-variant-caps:normal;font-variant-numeric:normal;font-variant-alternates:normal;font-variant-east-asian:normal;font-feature-settings:normal;font-variation-settings:normal;text-indent:0;text-align:start;text-decoration:none;text-decoration-line:none;text-decoration-style:solid;text-decoration-color:#000000;letter-spacing:normal;word-spacing:normal;text-transform:none;writing-mode:lr-tb;direction:ltr;text-orientation:mixed;dominant-baseline:auto;baseline-shift:baseline;text-anchor:start;white-space:normal;shape-padding:0;shape-margin:0;inline-size:0;clip-rule:nonzero;display:inline;overflow:visible;visibility:visible;opacity:1;isolation:auto;mix-blend-mode:normal;color-interpolation:sRGB;color-interpolation-filters:linearRGB;solid-color:#000000;solid-opacity:1;vector-effect:none;fill:#a80030;fill-opacity:1;fill-rule:nonzero;stroke:none;stroke-width:1;stroke-linecap:butt;stroke-linejoin:miter;stroke-miterlimit:4;stroke-dasharray:none;stroke-dashoffset:0;stroke-opacity:1;color-rendering:auto;image-rendering:auto;shape-rendering:auto;text-rendering:auto;enable-background:accumulate;stop-color:#000000;stop-opacity:1"
         d="m 0,35.215 c 2.0556149,-2.306274 -1.2627344,-2.951592 0,0 z" />
    </g>
  </g>
  <path
     d="m0 .5v-.5h80v15h-80v-14.5m77.5 13.5q.5 0 .875-.125t.5-.5.125-.875 0-1 0-1 0-1 0-1 0-1 0-1 0-1 0-1 0-1 0-1-.125-.875-.5-.5-.875-.125-1 0-1 0-1 0-1 0-1 0-1 0-1 0-1 0-1 0-1 0-1 0-1 0-1 0-1 0-1 0-1 0-1 0-1 0-1 0-1 0-1 0-1 0-1 0-1 0-1 0-1 0-1 0-1 0-1 0-1 0-1 0-1 0-1 0-1 0-1 0-1 0-1 0-1 0-1 0-1 0-1 0-1 0-1 0-1 0-1 0-1 0-1 0-1 0-1 0-1 0-1 0h-1q-.5 0-1 0t-1 0-1 0-1 0-1 0-1 0-1 0-1 0-1 0-1 0-1 0-1 0-1 0-1 0-1 0-1 0-1 0-1 0-1 0-1 0-1 0-1 0-1 0-.875.125-.5.5-.125.875 0 1 0 1 0 1 0 1 0 1 0 1 0 1 0 1 0 1 0 1 .125.875.5.5.875.125 1 0 1 0 1 0 1 0 1 0h5q.5 0 1 0h5q.5 0 1 0t1 0 1 0 1 0 1 0 1 0 1 0h1q.5 0 1 0t1 0 1 0 1 0 1 0 1 0 1 0 1 0 1 0 1 0 1 0 1 0 1 0 1 0 1 0 1 0 1 0 1 0 1 0 1 0 1 0 1 0 1 0 1 0 1 0 1 0 1 0 1 0 1 0 1 0 1 0 1 0 1 0 1 0 1 0 1 0 1 0 1 0 1 0 1 0 1 0 1 0 1 0 1 0 1 0 1 0 1 0 1 0 1 0 1 0 1 0"
     id="path442" />
  <path
     fill="#fdfffc"
     d="m25.875 1.375l.125-.375h.5q.5 0 1 0t1 0 1 0 1 0 1 0 1 0 1 0 1 0 1 0 1 0 1 0 1 0 1 0 1 0 1 0 1 0 1 0 1 0 1 0 1 0 1 0 1 0 1 0 1 0 1 0 1 0 1 0 1 0 1 0 1 0 1 0 1 0 1 0 1 0 1 0 1 0 1 0 1 0 1 0 1 0 1 0 1 0 1 0 1 0 1 0 1 0 1 0 1 0 1 0 1 0 1 0 .875.125.5.5.125.875 0 1 0 1 0 1 0 1 0 1 0 1 0 1 0 1 0 1 0 1-.125.875-.5.5-.875.125-1 0-1 0-1 0-1 0-1 0-1 0-1 0-1 0-1 0-1 0-1 0-1 0-1 0-1 0-1 0-1 0-1 0-1 0-1 0-1 0-1 0-1 0-1 0-1 0-1 0-1 0-1 0-1 0-1 0-1 0-1 0-1 0-1 0-1 0-1 0-1 0-1 0-1 0-1 0-1 0-1 0-1 0-1 0-1 0-1 0-1 0-1 0-1 0-1 0-1 0-1 0h-.5l-.125-.375q-.125-.375.156-.656l.281-.281-.125-.126.125.125q.125.125.313.188l.188.062-.562-.188.375.125q.375.125.875.125t1 0 1 0 1 0 1 0 1 0 1 0 1 0 1 0 1 0 1 0 1 0 1 0 1 0 1 0 1 0 1 0 1 0 1 0 1 0 1 0 1 0 1 0 1 0 1 0 1 0 1 0 1 0 1 0 1 0 1 0 1 0 1 0 1 0 1 0 1 0 1 0 1 0 1 0 1 0 1 0 1 0 1 0 1 0 1 0 1 0 1 0 1 0 1 0 1 0 .875-.125.5-.5.125-.875 0-1 0-1 0-1 0-1 0-1 0-1 0-1 0-1-.125-.875-.5-.5-.875-.125-1 0-1 0-1 0-1 0-1 0-1 0-1 0-1 0-1 0-1 0-1 0-1 0-1 0-1 0-1 0-1 0-1 0-1 0-1 0-1 0-1 0-1 0-1 0-1 0-1 0-1 0-1 0-1 0-1 0-1 0-1 0-1 0-1 0-1 0-1 0-1 0-1 0-1 0-1 0-1 0-1 0-1 0-1 0-1 0-1 0-1 0-1 0-1 0-1 0-.875.125l.187-.063-.187.063q-.187.063-.313.188l-.062.063.062-.063-.281-.281q-.281-.281-.156-.656"
     id="path446" />
  <rect
     style="fill:#000000;stroke:#000000;stroke-width:2.28214;stroke-linecap:round;stroke-linejoin:round;stroke-miterlimit:4;stroke-dasharray:none"
     id="rect1540"
     width="49.736866"
     height="8.745862"
     x="27.125032"
     y="3.127069" />
  <text
     xml:space="preserve"
     id="text1945"
     style="font-size:8px;line-height:1.25;font-family:'Linux Libertine Display O';-inkscape-font-specification:'Linux Libertine Display O';letter-spacing:0px;word-spacing:0px;white-space:pre;shape-inside:url(#rect1947);fill:#ffffff;"><tspan
       style="visibility:hidden"
       x="28.021484"
       y="19.146731"><tspan
         style="fill:#ffffff">D</tspan></tspan></text>
  <g
     aria-label="DEBIAN"
     id="text2824"
     style="font-style:normal;font-variant:normal;font-weight:bold;font-stretch:normal;font-size:8px;line-height:1.25;font-family:STIXIntegralsUpSm;-inkscape-font-specification:'STIXIntegralsUpSm Bold';letter-spacing:0.7px;word-spacing:0px;fill:#ffffff"
     transform="matrix(0.87263341,0,0,0.87263341,3.8039534,0.93400435)">
    <path
       id="path2826"
       d="m 31.503906,5.7207031 c 0,1.1861979 0,2.3723959 0,3.5585938 C 33.185075,10.003249 34.898374,7.3011522 33.3996,6.1599437 32.873217,5.742571 32.158782,5.594925 31.503906,5.7207031 Z M 30,4.5839844 c 1.762434,-0.076594 3.959746,-0.223075 5.133639,1.3767724 1.030385,1.5622494 -0.02437,3.9999784 -1.878331,4.2961272 -1.26882,0.967183 -3.642078,-0.0039 -3.367168,-1.7340413 C 30.122541,7.2358907 29.949894,5.8906429 30,4.5839844 Z" />
    <path
       id="path2828"
       d="m 37.340625,4.5839844 c 1.352865,0 2.705729,0 4.058594,0 0.754944,1.3877554 -3.181433,0.979453 -1.547909,1.9560787 1.07435,0.00653 1.238148,1.6681447 -0.06842,1.1399778 -1.306837,0.3175985 -0.22269,2.3990411 0.790536,1.4282877 1.364696,0.4960289 -0.04027,1.7908874 -0.984579,1.4635014 -1.922881,0.361952 -2.76954,-1.5682155 -2.239271,-3.1509158 0.01772,-0.9456877 -0.0429,-1.8913703 -0.009,-2.8369298 z" />
    <path
       id="path2830"
       d="m 45.841406,6.8417969 c 1.387899,-1.0268647 -2.09254,-1.078519 -0.597784,0.00739 0.19619,0.071671 0.398526,-0.00917 0.597784,-0.00739 z m 0.05078,2.5507812 C 47.781592,8.8082063 44.21165,7.0929422 44.944287,8.9772015 c 0.126232,0.3542989 0.595479,0.6739622 0.947899,0.4153766 z m 1.398438,-2.0976562 c 1.413344,0.491466 1.022047,2.5656469 -0.144233,3.1191391 -1.083743,0.393544 -2.545099,0.448643 -3.320734,-0.5869005 C 43.04002,8.8773678 43.608926,7.6763665 43.386052,6.5859154 43.227979,5.2429468 44.393106,3.9644002 45.764628,4.496452 c 1.420862,-0.0794 3.420996,1.807294 1.525996,2.7984699 z" />
    <path
       id="path2832"
       d="m 50.303125,4.5839844 c 1.690433,-0.4526473 1.815912,1.8621945 1.503907,2.9726841 0,0.9531158 0,1.9062317 0,2.8593475 -1.690433,0.452647 -1.815912,-1.8621944 -1.503907,-2.9726841 0,-0.9531158 0,-1.9062317 0,-2.8593475 z" />
    <path
       id="path2834"
       d="m 57.518749,9.3535156 c -0.783854,0 -1.567708,0 -2.351562,0 0.0177,1.9356744 -2.896941,-0.2873633 -1.132265,-0.9638428 0.469869,-1.2685635 0.939739,-2.5371269 1.409608,-3.8056904 1.504034,-0.5885293 2.606307,1.1037831 2.685604,2.4099544 0.422507,1.1406924 0.845014,2.2813848 1.267521,3.4220772 -0.742941,0.22472 -1.944972,-0.104579 -1.878906,-1.0624984 z M 55.542187,8.2714844 c 1.425192,1.3010107 1.703113,-2.9517273 0.428651,-1.287449 -0.147408,0.4276344 -0.254289,0.8692144 -0.428651,1.287449 z" />
    <path
       id="path2836"
       d="m 60.871094,4.5839844 c 1.529124,-0.5259993 2.5578,1.1296048 2.935081,2.3674461 0.288566,0.5441847 0.577133,1.0883693 0.8657,1.6325539 0,-1.3333333 0,-2.6666667 0,-4 1.728123,-0.3577158 1.659241,1.9683824 1.425781,3.0824854 0,0.9165154 0,1.8330308 0,2.7495462 -1.529124,0.526002 -2.557801,-1.1296045 -2.935081,-2.367446 -0.288566,-0.5441848 -0.577133,-1.0883696 -0.8657,-1.6325544 0,1.3333335 0,2.6666669 0,4.0000004 -1.728123,0.357716 -1.659241,-1.9683825 -1.425781,-3.0824854 0,-0.9165154 0,-1.8330308 0,-2.7495462 z" />
  </g>
</svg>
