<svg xmlns="http://www.w3.org/2000/svg" viewBox="0 0 80 15" xmlns:xlink="http://www.w3.org/1999/xlink"><defs><clipPath id="a"><path d="m-29.07-4.214h80v15h-80z"/></clipPath><clipPath id="b"><path d="m0 0h80v15h-80z"/></clipPath><clipPath id="c"><path d="m434.17 35.469h52.1v9.769h-52.1z"/></clipPath></defs><g transform="translate(-491.43-39.15)"><g clip-path="url(#c)" transform="matrix(1.5355 0 0 1.5355-175.24-15.314)"><path d="m431.58 36.656c-1.232-.099-1.436 1.398-1.059 2.272.576 1.775 1.409 3.559 2.648 4.956 1.453.473 2.786-.892 3.661-1.894.661-.767 1.477-2.354.234-3-1.67-1.035-3.478-2.184-5.484-2.334"/><path fill="#fff" d="m431.45 36.887c-1.228.29-.71 1.887-.404 2.701.61 1.446 1.28 2.942 2.324 4.123 1.419.556 2.805-.795 3.609-1.828.637-.747.917-2.13-.191-2.603-1.608-1.023-3.35-2.389-5.339-2.393"/><path d="m431.55 36.721c-1.251.023-.97 1.628-.622 2.389.646 1.612 1.431 3.236 2.572 4.551 1.447.6 2.912-.778 3.662-1.897.596-.752.664-2.026-.346-2.464-1.592-1.07-3.304-2.371-5.266-2.579"/><path fill="#f30" d="m431.48 36.816c-1.175.315-.484 1.829-.143 2.553.764 1.371 1.493 2.904 2.709 3.912 1.619.311 3.072-1.299 3.449-2.75.285-1.379-1.49-1.773-2.329-2.422-1.144-.573-2.359-1.362-3.686-1.292"/><path d="m123.19 737.54a38.751 38.751 0 0 1 -38.751 38.751 38.751 38.751 0 0 1 -38.751 -38.751 38.751 38.751 0 0 1 38.751 -38.751 38.751 38.751 0 0 1 38.751 38.751" transform="matrix(.24429 0 0 .24429 419.84-133.56)"/><path fill="#fff" d="m440.46 37.21c-4.87-.106-9.306 4.127-9.377 9.01-.349 4.941 3.858 9.608 8.81 9.77 4.877.434 9.556-3.569 9.93-8.444.59-4.835-3.179-9.668-8.03-10.227-.44-.093-.892-.074-1.338-.105"/><path d="m120.23 736.06a37.271 37.271 0 0 1 -37.271 37.271 37.271 37.271 0 0 1 -37.271 -37.271 37.271 37.271 0 0 1 37.271 -37.271 37.271 37.271 0 0 1 37.271 37.271" transform="matrix(.24429 0 0 .24429 419.84-133.56)"/><path fill="#f30" d="m439.47 37.15c-4.432-.094-8.257 4.03-8.03 8.413-.032 4.392 3.981 8.345 8.404 8.03 4.448-.096 8.08-4.409 7.665-8.79-.219-4.154-3.836-7.712-8.04-7.652"/><path d="m449.16 36.635c-2.19.238-4.17 1.462-5.926 2.719-.718 1.209.497 2.558 1.305 3.392.797.706 2.093 1.756 3.159 1.018 1.248-1.819 2.587-3.849 2.682-6.117-.023-.642-.606-1.06-1.221-1.012"/><path fill="#fff" d="m448.92 37.02c-2.046.256-3.885 1.411-5.527 2.594-.703 1.179.502 2.495 1.315 3.28.745.712 2.381 1.666 3.08.396 1-1.679 2.342-3.484 2.234-5.529-.095-.521-.611-.77-1.102-.74"/><path d="m448.7 36.834c-2.02.453-3.899 1.552-5.477 2.857-.554 1.41.811 2.777 1.861 3.537.767.615 2.142.823 2.586-.281 1-1.654 2.337-3.403 2.302-5.42-.093-.609-.746-.785-1.273-.693"/><path fill="#f30" d="m448.77 36.732c-2.044.45-3.951 1.532-5.584 2.809-.632 1.381.675 2.847 1.764 3.566.738.572 1.972.63 2.407-.356 1.088-1.62 2.521-3.299 2.635-5.324-.05-.613-.708-.791-1.223-.695"/><path d="m443.57 38.516c-1.272.006-1.062 1.625-.539 2.351.964 1.6 2.473 3.197 4.406 3.458 1.14.05 1.125-1.358.723-2.086-.368.642-.902 1.574-1.766 1.066-1.339-.647-2.834-1.943-2.768-3.543.508-.587 1.734-1.01.387-1.195-.145-.033-.295-.053-.443-.051"/></g><g clip-path="url(#b)" transform="translate(491.43 39.15)"><path d="m0 .5v-.5h80v15h-80v-14.5m77.5 13.5c.333 0 .625-.042.875-.125s.417-.25.5-.5c.083-.25.125-.542.125-.875v-10c0-.333-.042-.625-.125-.875s-.25-.417-.5-.5-.542-.125-.875-.125h-75c-.333 0-.625.042-.875.125s-.417.25-.5.5-.125.542-.125.875v10c0 .333.042.625.125.875s.25.417.5.5c.25.083.542.125.875.125h5.5c11.137.003 2.05.039 11.5 0h58"/><path d="m26.13 2.625c.083-.25.25-.417.5-.5.25-.083.542-.125.875-.125h49c.333 0 .625.042.875.125s.417.25.5.5c.083.25.125.542.125.875v8c0 .333-.042.625-.125.875s-.25.417-.5.5c-.25.083-.542.125-.875.125h-49c-.333 0-.625-.042-.875-.125s-.417-.25-.5-.5c-.083-.25-.125-.542-.125-.875v-8c0-.333.042-.625.125-.875"/><path d="m36.25 6.5q0-.25.375-.375t.75 0 .375.375-.375.375-.75 0-.375-.375"/></g><g clip-path="url(#a)" transform="translate(520.43 43.15)"><path d="m0 .5v-.5h36v7h-36v-6.5m1.125 4.875q.125.375.375.375t.375-.375.25-.75.5-.5.875-.125.875-.125.375-.375-.375-.375-.875-.125-.875-.125-.375-.375.375-.375.875-.125.875-.125.375-.375-.375-.375-.875-.125-1 0-.875.125-.5.5-.125.875 0 1 0 1 .125.875m8 0q.125.375.375.375t.375-.375 0-.75-.375-.625-.25-.5.25-.5.25-.5-.25-.5-.5-.5-.625-.375-.875-.125-.875.125-.5.5-.125.875 0 1 0 1 .125.875.375.375.375-.375.25-.75.5-.5.75 0 .5.5.25.75m4.375.625q.5 0 .875-.125t.375-.375-.375-.375-.875-.125-.875-.125-.375-.375.375-.375.75-.25.375-.375-.375-.375-.75-.25-.375-.375.375-.375.875-.125.875-.125.375-.375-.375-.375-.875-.125-1 0-.875.125-.5.5-.125.875 0 1 0 1 .125.875.5.5.875.125 1 0m5 0q.5 0 .875-.125t.375-.375-.375-.375-.875-.125-.875-.125-.375-.375.375-.375.75-.25.375-.375-.375-.375-.75-.25-.375-.375.375-.375.875-.125.875-.125.375-.375-.375-.375-.875-.125-1 0-.875.125-.5.5-.125.875 0 1 0 1 .125.875.5.5.875.125 1 0m4 0q.5 0 .875-.125t.625-.375.5-.5.25-.5-.25-.5-.25-.5.25-.5.25-.5-.25-.5-.5-.5-.625-.375-.875-.125-.875.125-.5.5-.125.875 0 1 0 1 .125.875.5.5.875.125m5 0q.5 0 .875-.125t.625-.375.5-.5.25-.5-.25-.5-.5-.5-.625-.375-.75-.25-.375-.375.375-.375.875-.125.875-.125.375-.375-.375-.375-.875-.125-.875.125-.625.375-.5.5-.25.5.25.5.5.5.625.375.75.25.375.375-.375.375-.875.125-.875.125-.375.375.375.375.875.125m5 0q.5 0 .875-.125t.625-.375.5-.5.375-.625.125-.875-.125-.875-.375-.625-.5-.5-.625-.375-.875-.125-.875.125-.5.5-.125.875 0 1 0 1 .125.875.5.5.875.125"/><g fill="#fff"><path d="m1.125 1.625q.125-.375.5-.5t.875-.125 1 0 .875.125.375.375-.375.375-.875.125-.875.125-.375.375.375.375.875.125.875.125.375.375-.375.375-.875.125-.875.125-.5.5-.25.75-.375.375-.375-.375-.125-.875 0-1 0-1 .125-.875"/><path d="m6.125 1.625q.125-.375.5-.5t.875-.125.875.125.625.375.5.5.25.5-.25.5-.25.5.25.5.375.625 0 .75-.375.375-.375-.375-.25-.75-.5-.5-.75 0-.5.5-.25.75-.375.375-.375-.375-.125-.875 0-1 0-1 .125-.875m1.5 1.25q.375.125.75 0t.375-.375-.375-.375-.75 0-.375.375.375.375"/><path id="d" d="m11.125 1.625q.125-.375.5-.5t.875-.125 1 0 .875.125.375.375-.375.375-.875.125-.875.125-.375.375.375.375.75.25.375.375-.375.375-.75.25-.375.375.375.375.875.125.875.125.375.375-.375.375-.875.125-1 0-.875-.125-.5-.5-.125-.875 0-1 0-1 .125-.875"/><use x="5" xlink:href="#d"/><path d="m21.13 1.625q.125-.375.5-.5t.875-.125.875.125.625.375.5.5.25.5-.25.5-.25.5.25.5.25.5-.25.5-.5.5-.625.375-.875.125-.875-.125-.5-.5-.125-.875 0-1 0-1 .125-.875m1.5 3.25q.375.125.75 0t.375-.375-.375-.375-.75 0-.375.375.375.375m0-2q.375.125.75 0t.375-.375-.375-.375-.75 0-.375.375.375.375"/><path d="m27 1.5q.25-.25.625-.375t.875-.125.875.125.375.375-.375.375-.875.125-.875.125-.375.375.375.375.75.25.625.375.5.5.25.5-.25.5-.5.5-.625.375-.875.125-.875-.125-.375-.375.375-.375.875-.125.875-.125.375-.375-.375-.375-.75-.25-.625-.375-.5-.5-.25-.5.25-.5.5-.5"/><path d="m31.13 1.625q.125-.375.5-.5t.875-.125.875.125.625.375.5.5.375.625.125.875-.125.875-.375.625-.5.5-.625.375-.875.125-.875-.125-.5-.5-.125-.875 0-1 0-1 .125-.875m1.5 3.25q.375.125.75 0t.5-.5.125-.875-.125-.875-.5-.5-.75 0-.5.5-.125.875.125.875.5.5"/></g><path id="e" d="m7.25 2.5q0-.25.375-.375t.75 0 .375.375-.375.375-.75 0-.375-.375"/><use x="15" xlink:href="#e"/><path d="m32.13 2.625q.125-.375.5-.5t.75 0 .5.5.125.875-.125.875-.5.5-.75 0-.5-.5-.125-.875.125-.875"/><use x="15" y="2" xlink:href="#e"/></g></g></svg>