<svg xmlns="http://www.w3.org/2000/svg" viewBox="0 0 80 15" xmlns:xlink="http://www.w3.org/1999/xlink"><defs><clipPath id="a"><path d="m1786-486.94h1137.5v1533.8h-1137.5z"/></clipPath><clipPath id="b"><path d="m-.625 19.927h80v15h-80z"/></clipPath><clipPath id="c"><path d="m0 0h80v15h-80z"/></clipPath></defs><g clip-path="url(#c)"><path d="m0 .5v-.5h80v15h-80v-14.5m77.5 13.5c.333 0 .625-.042.875-.125s.417-.25.5-.5c.083-.25.125-.542.125-.875v-10c0-.333-.042-.625-.125-.875s-.25-.417-.5-.5c-.25-.083-.542-.125-.875-.125h-75c-.333 0-.625.042-.875.125s-.417.25-.5.5-.125.542-.125.875v10c0 .333.042.625.125.875s.25.417.5.5c.25.083.542.125.875.125h75"/><path fill="#d7d7d7" d="m8 1h.5"/><path fill="#fff" d="m19.13 1.375l-.125-.375h.5q.5 0 1 0t1 0 1 0 1 0 1 0 1 0 1 0 1 0 1 0 1 0 1 0 1 0 1 0 1 0 1 0 1 0 1 0 1 0 1 0 1 0 1 0 1 0 1 0 1 0 1 0 1 0 1 0 1 0 1 0 1 0 1 0 1 0 1 0 1 0 1 0 1 0 1 0 1 0 1 0 1 0 1 0 1 0 1 0 1 0 1 0 1 0 1 0 1 0 1 0 1 0 1 0 1 0 1 0 1 0 1 0 1 0 1 0 1 0 .875.125.5.5.125.875 0 1 0 1 0 1 0 1 0 1 0 1 0 1 0 1 0 1 0 1-.125.875-.5.5-.875.125-1 0-1 0-1 0-1 0-1 0-1 0-1 0-1 0-1 0-1 0-1 0-1 0-1 0-1 0-1 0-1 0-1 0-1 0-1 0-1 0-1 0-1 0-1 0-1 0-1 0-1 0-1 0-1 0-1 0-1 0-1 0-1 0-1 0-1 0-1 0-1 0-1 0-1 0-1 0-1 0-1 0-1 0-1 0-1 0-1 0-1 0-1 0-1 0-1 0-1 0-1 0-1 0-1 0-1 0-1 0-1 0-1 0-1 0h-.5l.125-.375q.125-.375.5-.5t.5-.5.5-.5.5-.5-.156-.656l-.281-.281-.125.124.125-.125q.125-.125.188-.313l.062-.188-.188.562.062-.438.063-.437-.125.125.125-.125q.125-.125.125-.375v0q0-.5 0-1v-2q0-.5 0-1v0q0-.25-.125-.375l-.001-.001-.063-.438-.062-.438.188.563-.063-.188q-.063-.188-.187-.313l-.063-.063.063.063.281-.281q.281-.281.156-.656t-.5-.5-.5-.5-.5-.5-.5-.5m57.37 11.625q.5 0 .875-.125t.5-.5.125-.875 0-1 0-1 0-1 0-1 0-1 0-1 0-1 0-1-.125-.875-.5-.5-.875-.125-1 0-1 0-1 0-1 0-1 0-1 0-1 0-1 0-1 0-1 0-1 0-1 0-1 0-1 0-1 0-1 0-1 0-1 0-1 0-1 0-1 0-1 0-1 0-1 0-1 0-1 0-1 0-1 0-1 0-1 0-1 0-1 0-1 0-1 0-1 0-1 0-1 0-1 0-1 0-1 0-1 0-1 0-1 0-1 0-1 0-1 0-1 0-1 0-1 0-.875.125-.5.5-.125.875 0 1 0 1 0 1 0 1 0 1 0 1 0 1 0 1 .125.875.5.5.875.125 1 0 1 0 1 0 1 0 1 0 1 0 1 0 1 0 1 0 1 0 1 0 1 0 1 0 1 0 1 0 1 0 1 0 1 0 1 0 1 0 1 0 1 0 1 0 1 0 1 0 1 0 1 0 1 0 1 0 1 0 1 0 1 0 1 0 1 0 1 0 1 0 1 0 1 0 1 0 1 0 1 0 1 0 1 0 1 0 1 0 1 0 1 0 1 0 1 0"/><path d="m26.13 2.625q.125-.375.5-.5t.875-.125 1 0 1 0 1 0 1 0 1 0 1 0 1 0 1 0 1 0 1 0 1 0 1 0 1 0 1 0 1 0 1 0 1 0 1 0 1 0 1 0 1 0 1 0 1 0 1 0 1 0 1 0 1 0 1 0 1 0 1 0 1 0 1 0 1 0 1 0 1 0 1 0 1 0 1 0 1 0 1 0 1 0 1 0 1 0 1 0 1 0 1 0 1 0 1 0 1 0 .875.125.5.5.125.875 0 1 0 1 0 1 0 1 0 1 0 1 0 1 0 1-.125.875-.5.5-.875.125-1 0-1 0-1 0-1 0-1 0-1 0-1 0-1 0-1 0-1 0-1 0-1 0-1 0-1 0-1 0-1 0-1 0-1 0-1 0-1 0-1 0-1 0-1 0-1 0-1 0-1 0-1 0-1 0-1 0-1 0-1 0-1 0-1 0-1 0-1 0-1 0-1 0-1 0-1 0-1 0-1 0-1 0-1 0-1 0-1 0-1 0-1 0-1 0-1 0-.875-.125-.5-.5-.125-.875 0-1 0-1 0-1 0-1 0-1 0-1 0-1 0-1 .125-.875m7 6.75q.125.375.375.375t.375-.375.125-.875 0-1 0-1-.125-.875-.375-.375-.375.375-.25.75-.5.5-.75 0-.5-.5-.25-.75-.375-.375-.375.375-.125.875 0 1 0 1 .125.875.375.375.375-.375.25-.75.5-.5.75 0 .5.5.25.75m5 0q.125.375.375.375t.375-.375.125-.875 0-1-.125-.875-.375-.625-.5-.5-.625-.375-.75 0-.625.375-.5.5-.375.625-.125.875 0 1 .125.875.375.375.375-.375.25-.75.5-.5.75 0 .5.5.25.75m5 0q.125.375.375.375t.375-.375 0-.75-.375-.625-.375-.625 0-.75.375-.625.25-.5-.25-.25-.5.25-.5.5-.5.5-.5.25-.375-.375-.25-.75-.375-.375-.375.375-.125.875 0 1 0 1 .125.875.375.375.375-.375.25-.75.5-.5.75 0 .5.5.25.75m3.375.625q.5 0 .875-.125t.625-.375.5-.5.375-.625.125-.875 0-1-.125-.875-.375-.375-.375.375-.25.75-.5.5-.75 0-.5-.5-.25-.75-.375-.375-.375.375 0 .75.375.625.5.5.625.375.75.25.375.375-.375.375-.875.125-.875.125-.375.375.375.375.875.125m6 0q.5 0 .875-.125t.375-.375-.375-.375-.875-.125-.875-.125-.5-.5-.125-.875 0-1-.125-.875-.375-.375-.375.375-.125.875 0 1 0 1 .125.875.5.5.875.125 1 0m5 0q.5 0 .875-.125t.375-.375-.375-.375-.875-.125-.875-.125-.5-.5-.125-.875 0-1-.125-.875-.375-.375-.375.375-.125.875 0 1 0 1 .125.875.5.5.875.125 1 0"/><g fill="#fff"><path d="m30.13 5.625q.125-.375.375-.375t.375.375.25.75.5.5.75 0 .5-.5.25-.75.375-.375.375.375.125.875 0 1 0 1-.125.875-.375.375-.375-.375-.25-.75-.5-.5-.75 0-.5.5-.25.75-.375.375-.375-.375-.125-.875 0-1 0-1 .125-.875"/><path d="m36 5.5q.25-.25.625-.375t.75 0 .625.375.5.5.375.625.125.875 0 1-.125.875-.375.375-.375-.375-.25-.75-.5-.5-.75 0-.5.5-.25.75-.375.375-.375-.375-.125-.875 0-1 .125-.875.375-.625.5-.5m.625 1.375q.375.125.75 0t.375-.375-.375-.375-.75 0-.375.375.375.375"/><path d="m40.13 5.625q.125-.375.375-.375t.375.375.25.75.375.375.5-.25.5-.5.5-.5.5-.25.25.25-.25.5-.375.625 0 .75.375.625.375.625 0 .75-.375.375-.375-.375-.25-.75-.5-.5-.75 0-.5.5-.25.75-.375.375-.375-.375-.125-.875 0-1 0-1 .125-.875"/><path d="m45.13 5.625q.125-.375.375-.375t.375.375.25.75.5.5.75 0 .5-.5.25-.75.375-.375.375.375.125.875 0 1-.125.875-.375.625-.5.5-.625.375-.875.125-.875-.125-.375-.375.375-.375.875-.125.875-.125.375-.375-.375-.375-.75-.25-.625-.375-.5-.5-.375-.625 0-.75"/><path id="d" d="m50.13 5.625q.125-.375.375-.375t.375.375.125.875 0 1 .125.875.5.5.875.125.875.125.375.375-.375.375-.875.125-1 0-.875-.125-.5-.5-.125-.875 0-1 0-1 .125-.875"/><use x="5" xlink:href="#d"/></g><path d="m36.25 6.5q0-.25.375-.375t.75 0 .375.375-.375.375-.75 0-.375-.375"/><path fill="#fff" d="m11 11.469v-.469h1l-.125.375q-.125.375-.5.5l-.375.125.375-.125q-.187.063-.375.063h0v-.469"/></g><g clip-path="url(#b)" transform="translate(.625-19.927)"><circle cx="13.1" cy="27.427" r="8.531"/><path fill="#fff" d="m2734.8 709.19h36.04c0 105.45-17.19 182.2-51.56 230.26-34.37 48.05-77.25 72.08-128.64 72.08-42.05 0-82.43-15.851-121.13-47.553-38.71-31.702-73.42-116.63-104.12-254.78l-86.1-388.43-298.33 676.75h-189.21l428.48-923.03c-22.692-119.47-50.06-207.9-82.09-265.29-32.04-57.4-71.75-86.09-119.13-86.1-38.04.001-71.25 14.517-99.61 43.548-28.365 29.03-44.22 73.917-47.553 134.65h-36.04c2-98.11 21.691-176.7 59.07-235.76 37.38-59.06 84.09-88.6 140.16-88.6 36.04.001 94.96 12.11 127.33 41.803 32.369 29.701 93.36 83.17 117.05 154.92 23.692 71.75 60.57 206.68 110.62 432.26l82.07 353.06c28.698 131.48 45.17 163.11 60.39 211.61 12.476 25.16 31.13 77.56 75.18 77.56 74.75 0 117.13-33.5 127.14-138.95z" clip-path="url(#a)" transform="matrix(.00805 0 0 .00805-5.233 25.06)"/></g></svg>