<?xml version="1.0" encoding="UTF-8" standalone="no"?>
<svg xmlns:rdf="http://www.w3.org/1999/02/22-rdf-syntax-ns#" xmlns="http://www.w3.org/2000/svg" height="329.37" width="401.68" version="1.1" xmlns:cc="http://creativecommons.org/ns#" xmlns:dc="http://purl.org/dc/elements/1.1/" viewBox="0 0 321.34683 263.496">
<defs>
<linearGradient id="a" y2="40.004" gradientUnits="userSpaceOnUse" y1="40.004" x2="293.13" x1="254.31">
<stop stop-color="#ac80a0" offset="0"/>
<stop stop-color="#2292a4" offset="1"/>
</linearGradient>
</defs>
<g font-size="14px" font-family="&apos;PT Sans&apos;">
<g fill="#ac80a0">
<path d="m260.21 14.408q0 0.35-0.112 0.714t-0.336 0.686q-0.224 0.308-0.574 0.546t-0.826 0.364v0.056q0.42 0.07 0.798 0.238 0.392 0.168 0.686 0.462t0.476 0.714 0.182 0.994q0 0.756-0.322 1.316-0.308 0.546-0.826 0.896-0.504 0.35-1.162 0.518t-1.344 0.168q-0.238 0-0.56 0t-0.672-0.028q-0.35-0.014-0.7-0.056-0.35-0.028-0.616-0.098v-9.646q0.518-0.084 1.204-0.14t1.498-0.056q0.546 0 1.106 0.098 0.574 0.084 1.036 0.35 0.462 0.252 0.756 0.714 0.308 0.462 0.308 1.19zm-3.248 6.664q0.448 0 0.868-0.098 0.42-0.112 0.742-0.336 0.322-0.238 0.504-0.574 0.196-0.336 0.196-0.798 0-0.574-0.238-0.924-0.224-0.35-0.602-0.546-0.364-0.196-0.826-0.266t-0.924-0.07h-1.218v3.514q0.098 0.028 0.28 0.042t0.392 0.028 0.434 0.028q0.224 0 0.392 0zm-0.77-4.592q0.238 0 0.574-0.014t0.56-0.042q0.336-0.112 0.63-0.266 0.294-0.168 0.518-0.378 0.238-0.224 0.364-0.504 0.14-0.294 0.14-0.63 0-0.462-0.182-0.756-0.168-0.308-0.462-0.49t-0.672-0.252q-0.378-0.084-0.77-0.084-0.462 0-0.854 0.028-0.378 0.014-0.574 0.056v3.332h0.728z"/>
<path d="m262.48 21.968v-9.8h1.162v8.764h3.206v-8.764h1.162v8.764h3.206v-8.764h1.162v9.8h-9.898z"/>
<path d="m275.67 16.438h4.032q-0.07-0.854-0.336-1.498-0.266-0.658-0.686-1.078-0.42-0.434-0.98-0.63-0.546-0.196-1.19-0.196-0.658 0-1.176 0.112-0.504 0.112-0.826 0.308l-0.308-0.91q0.434-0.252 1.078-0.392 0.644-0.154 1.372-0.154 0.896 0 1.666 0.28t1.33 0.896q0.574 0.602 0.896 1.568t0.322 2.324q0 1.372-0.364 2.338t-0.994 1.582q-0.616 0.602-1.442 0.882-0.812 0.266-1.708 0.266-0.7 0-1.246-0.098-0.532-0.098-0.91-0.252l0.308-1.022q0.322 0.154 0.84 0.252 0.518 0.084 1.078 0.084t1.12-0.168q0.574-0.182 1.036-0.616t0.77-1.134 0.364-1.708h-4.046v-1.036z"/>
<path d="m282.47 17.418h3.388v1.036h-3.388v-1.036z"/>
<path d="m288.2 20.932h1.96v-6.776l0.14-0.826-0.56 0.658-1.54 1.106-0.532-0.714 3.08-2.38h0.504v8.932h1.918v1.036h-4.97v-1.036z"/>
</g>
<g fill="url(#a)">
<path d="m260.21 37.344q0 0.35-0.112 0.714t-0.336 0.686q-0.224 0.308-0.574 0.546t-0.826 0.364v0.056q0.42 0.07 0.798 0.238 0.392 0.168 0.686 0.462t0.476 0.714 0.182 0.994q0 0.756-0.322 1.316-0.308 0.546-0.826 0.896-0.504 0.35-1.162 0.518t-1.344 0.168q-0.238 0-0.56 0t-0.672-0.028q-0.35-0.014-0.7-0.056-0.35-0.028-0.616-0.098v-9.646q0.518-0.084 1.204-0.14t1.498-0.056q0.546 0 1.106 0.098 0.574 0.084 1.036 0.35 0.462 0.252 0.756 0.714 0.308 0.462 0.308 1.19zm-3.248 6.664q0.448 0 0.868-0.098 0.42-0.112 0.742-0.336 0.322-0.238 0.504-0.574 0.196-0.336 0.196-0.798 0-0.574-0.238-0.924-0.224-0.35-0.602-0.546-0.364-0.196-0.826-0.266t-0.924-0.07h-1.218v3.514q0.098 0.028 0.28 0.042t0.392 0.028 0.434 0.028q0.224 0 0.392 0zm-0.77-4.592q0.238 0 0.574-0.014t0.56-0.042q0.336-0.112 0.63-0.266 0.294-0.168 0.518-0.378 0.238-0.224 0.364-0.504 0.14-0.294 0.14-0.63 0-0.462-0.182-0.756-0.168-0.308-0.462-0.49t-0.672-0.252q-0.378-0.084-0.77-0.084-0.462 0-0.854 0.028-0.378 0.014-0.574 0.056v3.332h0.728z"/>
<path d="m262.48 44.904v-9.8h1.162v8.764h3.206v-8.764h1.162v8.764h3.206v-8.764h1.162v9.8h-9.898z"/>
<path d="m275.67 39.374h4.032q-0.07-0.854-0.336-1.498-0.266-0.658-0.686-1.078-0.42-0.434-0.98-0.63-0.546-0.196-1.19-0.196-0.658 0-1.176 0.112-0.504 0.112-0.826 0.308l-0.308-0.91q0.434-0.252 1.078-0.392 0.644-0.154 1.372-0.154 0.896 0 1.666 0.28t1.33 0.896q0.574 0.602 0.896 1.568t0.322 2.324q0 1.372-0.364 2.338t-0.994 1.582q-0.616 0.602-1.442 0.882-0.812 0.266-1.708 0.266-0.7 0-1.246-0.098-0.532-0.098-0.91-0.252l0.308-1.022q0.322 0.154 0.84 0.252 0.518 0.084 1.078 0.084t1.12-0.168q0.574-0.182 1.036-0.616t0.77-1.134 0.364-1.708h-4.046v-1.036z"/>
<path d="m282.47 40.354h3.388v1.036h-3.388v-1.036z"/>
<path d="m292.93 37.33q0 0.742-0.28 1.526-0.266 0.77-0.714 1.554-0.434 0.784-0.98 1.54-0.546 0.742-1.092 1.414l-0.686 0.602v0.056l0.896-0.154h3.052v1.036h-5.572v-0.406q0.308-0.322 0.742-0.798t0.896-1.05q0.476-0.588 0.924-1.232 0.462-0.658 0.826-1.33 0.378-0.672 0.602-1.33t0.224-1.246q0-0.686-0.392-1.134-0.392-0.462-1.19-0.462-0.532 0-1.036 0.224-0.504 0.21-0.868 0.49l-0.462-0.798q0.49-0.42 1.162-0.658t1.442-0.238q0.602 0 1.064 0.182 0.462 0.168 0.784 0.49t0.49 0.77q0.168 0.434 0.168 0.952z"/>
</g>
<g fill="#ac80a0">
<path d="m260.21 60.28q0 0.35-0.112 0.714t-0.336 0.686q-0.224 0.308-0.574 0.546t-0.826 0.364v0.056q0.42 0.07 0.798 0.238 0.392 0.168 0.686 0.462t0.476 0.714 0.182 0.994q0 0.756-0.322 1.316-0.308 0.546-0.826 0.896-0.504 0.35-1.162 0.518t-1.344 0.168q-0.238 0-0.56 0t-0.672-0.028q-0.35-0.014-0.7-0.056-0.35-0.028-0.616-0.098v-9.646q0.518-0.084 1.204-0.14t1.498-0.056q0.546 0 1.106 0.098 0.574 0.084 1.036 0.35 0.462 0.252 0.756 0.714 0.308 0.462 0.308 1.19zm-3.248 6.664q0.448 0 0.868-0.098 0.42-0.112 0.742-0.336 0.322-0.238 0.504-0.574 0.196-0.336 0.196-0.798 0-0.574-0.238-0.924-0.224-0.35-0.602-0.546-0.364-0.196-0.826-0.266t-0.924-0.07h-1.218v3.514q0.098 0.028 0.28 0.042t0.392 0.028 0.434 0.028q0.224 0 0.392 0zm-0.77-4.592q0.238 0 0.574-0.014t0.56-0.042q0.336-0.112 0.63-0.266 0.294-0.168 0.518-0.378 0.238-0.224 0.364-0.504 0.14-0.294 0.14-0.63 0-0.462-0.182-0.756-0.168-0.308-0.462-0.49t-0.672-0.252q-0.378-0.084-0.77-0.084-0.462 0-0.854 0.028-0.378 0.014-0.574 0.056v3.332h0.728z"/>
<path d="m262.48 67.84v-9.8h1.162v8.764h3.206v-8.764h1.162v8.764h3.206v-8.764h1.162v9.8h-9.898z"/>
<path d="m275.67 62.31h4.032q-0.07-0.854-0.336-1.498-0.266-0.658-0.686-1.078-0.42-0.434-0.98-0.63-0.546-0.196-1.19-0.196-0.658 0-1.176 0.112-0.504 0.112-0.826 0.308l-0.308-0.91q0.434-0.252 1.078-0.392 0.644-0.154 1.372-0.154 0.896 0 1.666 0.28t1.33 0.896q0.574 0.602 0.896 1.568t0.322 2.324q0 1.372-0.364 2.338t-0.994 1.582q-0.616 0.602-1.442 0.882-0.812 0.266-1.708 0.266-0.7 0-1.246-0.098-0.532-0.098-0.91-0.252l0.308-1.022q0.322 0.154 0.84 0.252 0.518 0.084 1.078 0.084t1.12-0.168q0.574-0.182 1.036-0.616t0.77-1.134 0.364-1.708h-4.046v-1.036z"/>
<path d="m282.47 63.29h3.388v1.036h-3.388v-1.036z"/>
<path d="m289.96 67.028q0.476 0 0.882-0.14t0.7-0.406q0.294-0.28 0.462-0.658t0.168-0.826q0-0.98-0.588-1.456-0.574-0.476-1.596-0.476h-1.036v-0.406l2.016-3.108 0.644-0.616-0.91 0.14h-2.772v-1.036h4.998v0.406l-2.226 3.346-0.49 0.406v0.028l0.476-0.098q0.56 0.014 1.036 0.21 0.476 0.182 0.826 0.546 0.35 0.35 0.546 0.854 0.196 0.49 0.196 1.12 0 0.756-0.266 1.344t-0.728 0.994q-0.448 0.392-1.064 0.602t-1.302 0.21q-0.63 0-1.134-0.098t-0.882-0.252l0.294-0.994q0.322 0.154 0.756 0.266 0.448 0.098 0.994 0.098z"/>
</g>
</g>
<path d="m260.21 83.216q0 0.35-0.112 0.714t-0.336 0.686q-0.224 0.308-0.574 0.546t-0.826 0.364v0.056q0.42 0.07 0.798 0.238 0.392 0.168 0.686 0.462t0.476 0.714 0.182 0.994q0 0.756-0.322 1.316-0.308 0.546-0.826 0.896-0.504 0.35-1.162 0.518t-1.344 0.168q-0.238 0-0.56 0t-0.672-0.028q-0.35-0.014-0.7-0.056-0.35-0.028-0.616-0.098v-9.646q0.518-0.084 1.204-0.14t1.498-0.056q0.546 0 1.106 0.098 0.574 0.084 1.036 0.35 0.462 0.252 0.756 0.714 0.308 0.462 0.308 1.19zm-3.248 6.664q0.448 0 0.868-0.098 0.42-0.112 0.742-0.336 0.322-0.238 0.504-0.574 0.196-0.336 0.196-0.798 0-0.574-0.238-0.924-0.224-0.35-0.602-0.546-0.364-0.196-0.826-0.266t-0.924-0.07h-1.218v3.514q0.098 0.028 0.28 0.042t0.392 0.028 0.434 0.028q0.224 0 0.392 0zm-0.77-4.592q0.238 0 0.574-0.014t0.56-0.042q0.336-0.112 0.63-0.266 0.294-0.168 0.518-0.378 0.238-0.224 0.364-0.504 0.14-0.294 0.14-0.63 0-0.462-0.182-0.756-0.168-0.308-0.462-0.49t-0.672-0.252q-0.378-0.084-0.77-0.084-0.462 0-0.854 0.028-0.378 0.014-0.574 0.056v3.332h0.728z"/>
<path d="m262.48 90.776v-9.8h1.162v8.764h3.206v-8.764h1.162v8.764h3.206v-8.764h1.162v9.8h-9.898z"/>
<path d="m275.67 85.246h4.032q-0.07-0.854-0.336-1.498-0.266-0.658-0.686-1.078-0.42-0.434-0.98-0.63-0.546-0.196-1.19-0.196-0.658 0-1.176 0.112-0.504 0.112-0.826 0.308l-0.308-0.91q0.434-0.252 1.078-0.392 0.644-0.154 1.372-0.154 0.896 0 1.666 0.28t1.33 0.896q0.574 0.602 0.896 1.568t0.322 2.324q0 1.372-0.364 2.338t-0.994 1.582q-0.616 0.602-1.442 0.882-0.812 0.266-1.708 0.266-0.7 0-1.246-0.098-0.532-0.098-0.91-0.252l0.308-1.022q0.322 0.154 0.84 0.252 0.518 0.084 1.078 0.084t1.12-0.168q0.574-0.182 1.036-0.616t0.77-1.134 0.364-1.708h-4.046v-1.036z"/>
<path d="m282.47 86.226h3.388v1.036h-3.388v-1.036z"/>
<path d="m294.02 87.766h-1.652v3.01h-1.092v-3.01h-4.312v-0.462l4.648-6.482h0.756v5.964h1.652v0.98zm-2.744-4.032 0.14-1.148h-0.042l-0.49 0.952-1.974 2.674-0.672 0.686 0.98-0.112h2.058v-3.052z"/>
<g font-size="14px" font-family="&apos;PT Sans&apos;" fill="#d96c06">
<path d="m260.21 106.15q0 0.35-0.112 0.714t-0.336 0.686q-0.224 0.308-0.574 0.546t-0.826 0.364v0.056q0.42 0.07 0.798 0.238 0.392 0.168 0.686 0.462t0.476 0.714 0.182 0.994q0 0.756-0.322 1.316-0.308 0.546-0.826 0.896-0.504 0.35-1.162 0.518t-1.344 0.168q-0.238 0-0.56 0t-0.672-0.028q-0.35-0.014-0.7-0.056-0.35-0.028-0.616-0.098v-9.646q0.518-0.084 1.204-0.14t1.498-0.056q0.546 0 1.106 0.098 0.574 0.084 1.036 0.35 0.462 0.252 0.756 0.714 0.308 0.462 0.308 1.19zm-3.248 6.664q0.448 0 0.868-0.098 0.42-0.112 0.742-0.336 0.322-0.238 0.504-0.574 0.196-0.336 0.196-0.798 0-0.574-0.238-0.924-0.224-0.35-0.602-0.546-0.364-0.196-0.826-0.266t-0.924-0.07h-1.218v3.514q0.098 0.028 0.28 0.042t0.392 0.028 0.434 0.028q0.224 0 0.392 0zm-0.77-4.592q0.238 0 0.574-0.014t0.56-0.042q0.336-0.112 0.63-0.266 0.294-0.168 0.518-0.378 0.238-0.224 0.364-0.504 0.14-0.294 0.14-0.63 0-0.462-0.182-0.756-0.168-0.308-0.462-0.49t-0.672-0.252q-0.378-0.084-0.77-0.084-0.462 0-0.854 0.028-0.378 0.014-0.574 0.056v3.332h0.728z"/>
<path d="m262.48 113.71v-9.8h1.162v8.764h3.206v-8.764h1.162v8.764h3.206v-8.764h1.162v9.8h-9.898z"/>
<path d="m275.67 108.18h4.032q-0.07-0.854-0.336-1.498-0.266-0.658-0.686-1.078-0.42-0.434-0.98-0.63-0.546-0.196-1.19-0.196-0.658 0-1.176 0.112-0.504 0.112-0.826 0.308l-0.308-0.91q0.434-0.252 1.078-0.392 0.644-0.154 1.372-0.154 0.896 0 1.666 0.28t1.33 0.896q0.574 0.602 0.896 1.568t0.322 2.324q0 1.372-0.364 2.338t-0.994 1.582q-0.616 0.602-1.442 0.882-0.812 0.266-1.708 0.266-0.7 0-1.246-0.098-0.532-0.098-0.91-0.252l0.308-1.022q0.322 0.154 0.84 0.252 0.518 0.084 1.078 0.084t1.12-0.168q0.574-0.182 1.036-0.616t0.77-1.134 0.364-1.708h-4.046v-1.036z"/>
<path d="m282.47 109.16h3.388v1.036h-3.388v-1.036z"/>
<path d="m289.67 112.9q0.966 0 1.596-0.56t0.63-1.624q0-1.022-0.63-1.526-0.616-0.504-1.708-0.504l-1.176 0.07v-4.844h4.368v1.036h-3.318v2.786l0.602-0.028q1.386 0.014 2.184 0.77t0.798 2.17q0 0.784-0.266 1.4-0.266 0.602-0.728 1.008-0.448 0.406-1.064 0.616t-1.316 0.21q-0.63 0-1.064-0.07t-0.812-0.21l0.294-0.952q0.322 0.126 0.686 0.196 0.378 0.056 0.924 0.056z"/>
<path d="m260.21 129.09q0 0.35-0.112 0.714t-0.336 0.686q-0.224 0.308-0.574 0.546t-0.826 0.364v0.056q0.42 0.07 0.798 0.238 0.392 0.168 0.686 0.462t0.476 0.714 0.182 0.994q0 0.756-0.322 1.316-0.308 0.546-0.826 0.896-0.504 0.35-1.162 0.518t-1.344 0.168q-0.238 0-0.56 0t-0.672-0.028q-0.35-0.014-0.7-0.056-0.35-0.028-0.616-0.098v-9.646q0.518-0.084 1.204-0.14t1.498-0.056q0.546 0 1.106 0.098 0.574 0.084 1.036 0.35 0.462 0.252 0.756 0.714 0.308 0.462 0.308 1.19zm-3.248 6.664q0.448 0 0.868-0.098 0.42-0.112 0.742-0.336 0.322-0.238 0.504-0.574 0.196-0.336 0.196-0.798 0-0.574-0.238-0.924-0.224-0.35-0.602-0.546-0.364-0.196-0.826-0.266t-0.924-0.07h-1.218v3.514q0.098 0.028 0.28 0.042t0.392 0.028 0.434 0.028q0.224 0 0.392 0zm-0.77-4.592q0.238 0 0.574-0.014t0.56-0.042q0.336-0.112 0.63-0.266 0.294-0.168 0.518-0.378 0.238-0.224 0.364-0.504 0.14-0.294 0.14-0.63 0-0.462-0.182-0.756-0.168-0.308-0.462-0.49t-0.672-0.252q-0.378-0.084-0.77-0.084-0.462 0-0.854 0.028-0.378 0.014-0.574 0.056v3.332h0.728z"/>
<path d="m262.48 136.65v-9.8h1.162v8.764h3.206v-8.764h1.162v8.764h3.206v-8.764h1.162v9.8h-9.898z"/>
<path d="m275.67 131.12h4.032q-0.07-0.854-0.336-1.498-0.266-0.658-0.686-1.078-0.42-0.434-0.98-0.63-0.546-0.196-1.19-0.196-0.658 0-1.176 0.112-0.504 0.112-0.826 0.308l-0.308-0.91q0.434-0.252 1.078-0.392 0.644-0.154 1.372-0.154 0.896 0 1.666 0.28t1.33 0.896q0.574 0.602 0.896 1.568t0.322 2.324q0 1.372-0.364 2.338t-0.994 1.582q-0.616 0.602-1.442 0.882-0.812 0.266-1.708 0.266-0.7 0-1.246-0.098-0.532-0.098-0.91-0.252l0.308-1.022q0.322 0.154 0.84 0.252 0.518 0.084 1.078 0.084t1.12-0.168q0.574-0.182 1.036-0.616t0.77-1.134 0.364-1.708h-4.046v-1.036z"/>
<path d="m282.47 132.1h3.388v1.036h-3.388v-1.036z"/>
<path d="m293.58 133.69q0 0.644-0.196 1.218-0.196 0.56-0.574 0.994-0.378 0.42-0.938 0.672-0.56 0.238-1.274 0.238-0.7 0-1.26-0.224t-0.966-0.658q-0.406-0.448-0.63-1.092-0.21-0.644-0.21-1.484 0-1.386 0.35-2.548 0.364-1.176 0.994-2.044t1.484-1.4q0.868-0.546 1.876-0.686l0.238 0.896q-0.784 0.14-1.428 0.532t-1.134 0.966q-0.476 0.574-0.784 1.288t-0.42 1.47q0.224-0.378 0.756-0.686 0.532-0.322 1.302-0.322 1.316 0 2.058 0.756 0.756 0.756 0.756 2.114zm-1.162 0.112q0-0.994-0.462-1.498t-1.428-0.504q-0.686 0-1.19 0.336-0.49 0.336-0.686 0.756-0.028 0.196-0.028 0.322t0 0.28q0 0.434 0.112 0.854 0.126 0.42 0.378 0.756 0.252 0.322 0.616 0.532 0.378 0.196 0.882 0.196 0.406 0 0.728-0.154 0.336-0.154 0.574-0.42t0.364-0.644q0.14-0.378 0.14-0.812z"/>
<path d="m260.21 152.02q0 0.35-0.112 0.714t-0.336 0.686q-0.224 0.308-0.574 0.546t-0.826 0.364v0.056q0.42 0.07 0.798 0.238 0.392 0.168 0.686 0.462t0.476 0.714 0.182 0.994q0 0.756-0.322 1.316-0.308 0.546-0.826 0.896-0.504 0.35-1.162 0.518t-1.344 0.168q-0.238 0-0.56 0t-0.672-0.028q-0.35-0.014-0.7-0.056-0.35-0.028-0.616-0.098v-9.646q0.518-0.084 1.204-0.14t1.498-0.056q0.546 0 1.106 0.098 0.574 0.084 1.036 0.35 0.462 0.252 0.756 0.714 0.308 0.462 0.308 1.19zm-3.248 6.664q0.448 0 0.868-0.098 0.42-0.112 0.742-0.336 0.322-0.238 0.504-0.574 0.196-0.336 0.196-0.798 0-0.574-0.238-0.924-0.224-0.35-0.602-0.546-0.364-0.196-0.826-0.266t-0.924-0.07h-1.218v3.514q0.098 0.028 0.28 0.042t0.392 0.028 0.434 0.028q0.224 0 0.392 0zm-0.77-4.592q0.238 0 0.574-0.014t0.56-0.042q0.336-0.112 0.63-0.266 0.294-0.168 0.518-0.378 0.238-0.224 0.364-0.504 0.14-0.294 0.14-0.63 0-0.462-0.182-0.756-0.168-0.308-0.462-0.49t-0.672-0.252q-0.378-0.084-0.77-0.084-0.462 0-0.854 0.028-0.378 0.014-0.574 0.056v3.332h0.728z"/>
<path d="m262.48 159.58v-9.8h1.162v8.764h3.206v-8.764h1.162v8.764h3.206v-8.764h1.162v9.8h-9.898z"/>
<path d="m275.67 154.05h4.032q-0.07-0.854-0.336-1.498-0.266-0.658-0.686-1.078-0.42-0.434-0.98-0.63-0.546-0.196-1.19-0.196-0.658 0-1.176 0.112-0.504 0.112-0.826 0.308l-0.308-0.91q0.434-0.252 1.078-0.392 0.644-0.154 1.372-0.154 0.896 0 1.666 0.28t1.33 0.896q0.574 0.602 0.896 1.568t0.322 2.324q0 1.372-0.364 2.338t-0.994 1.582q-0.616 0.602-1.442 0.882-0.812 0.266-1.708 0.266-0.7 0-1.246-0.098-0.532-0.098-0.91-0.252l0.308-1.022q0.322 0.154 0.84 0.252 0.518 0.084 1.078 0.084t1.12-0.168q0.574-0.182 1.036-0.616t0.77-1.134 0.364-1.708h-4.046v-1.036z"/>
<path d="m282.47 155.03h3.388v1.036h-3.388v-1.036z"/>
<path d="m288.23 159.58 3.514-8.204 0.616-0.686-0.826 0.126h-3.99v-1.036h5.852v0.378l-4.032 9.422h-1.134z"/>
</g>
<g font-size="14px" font-family="&apos;PT Sans&apos;">
<g fill="#bdbf09">
<path d="m260.21 174.96q0 0.35-0.112 0.714t-0.336 0.686q-0.224 0.308-0.574 0.546t-0.826 0.364v0.056q0.42 0.07 0.798 0.238 0.392 0.168 0.686 0.462t0.476 0.714 0.182 0.994q0 0.756-0.322 1.316-0.308 0.546-0.826 0.896-0.504 0.35-1.162 0.518t-1.344 0.168q-0.238 0-0.56 0t-0.672-0.028q-0.35-0.014-0.7-0.056-0.35-0.028-0.616-0.098v-9.646q0.518-0.084 1.204-0.14t1.498-0.056q0.546 0 1.106 0.098 0.574 0.084 1.036 0.35 0.462 0.252 0.756 0.714 0.308 0.462 0.308 1.19zm-3.248 6.664q0.448 0 0.868-0.098 0.42-0.112 0.742-0.336 0.322-0.238 0.504-0.574 0.196-0.336 0.196-0.798 0-0.574-0.238-0.924-0.224-0.35-0.602-0.546-0.364-0.196-0.826-0.266t-0.924-0.07h-1.218v3.514q0.098 0.028 0.28 0.042t0.392 0.028 0.434 0.028q0.224 0 0.392 0zm-0.77-4.592q0.238 0 0.574-0.014t0.56-0.042q0.336-0.112 0.63-0.266 0.294-0.168 0.518-0.378 0.238-0.224 0.364-0.504 0.14-0.294 0.14-0.63 0-0.462-0.182-0.756-0.168-0.308-0.462-0.49t-0.672-0.252q-0.378-0.084-0.77-0.084-0.462 0-0.854 0.028-0.378 0.014-0.574 0.056v3.332h0.728z"/>
<path d="m262.48 182.52v-9.8h1.162v8.764h3.206v-8.764h1.162v8.764h3.206v-8.764h1.162v9.8h-9.898z"/>
<path d="m275.67 176.99h4.032q-0.07-0.854-0.336-1.498-0.266-0.658-0.686-1.078-0.42-0.434-0.98-0.63-0.546-0.196-1.19-0.196-0.658 0-1.176 0.112-0.504 0.112-0.826 0.308l-0.308-0.91q0.434-0.252 1.078-0.392 0.644-0.154 1.372-0.154 0.896 0 1.666 0.28t1.33 0.896q0.574 0.602 0.896 1.568t0.322 2.324q0 1.372-0.364 2.338t-0.994 1.582q-0.616 0.602-1.442 0.882-0.812 0.266-1.708 0.266-0.7 0-1.246-0.098-0.532-0.098-0.91-0.252l0.308-1.022q0.322 0.154 0.84 0.252 0.518 0.084 1.078 0.084t1.12-0.168q0.574-0.182 1.036-0.616t0.77-1.134 0.364-1.708h-4.046v-1.036z"/>
<path d="m282.47 177.97h3.388v1.036h-3.388v-1.036z"/>
<path d="m287.64 180.18q0-0.882 0.462-1.526 0.462-0.658 1.442-1.19-0.35-0.21-0.658-0.434-0.294-0.238-0.532-0.532-0.224-0.294-0.364-0.658-0.126-0.364-0.126-0.84 0-0.546 0.182-0.994 0.196-0.448 0.546-0.77 0.364-0.322 0.854-0.504 0.504-0.182 1.134-0.182 0.588 0 1.064 0.168t0.798 0.462q0.336 0.294 0.518 0.7t0.182 0.896q0 0.798-0.364 1.414-0.364 0.602-1.204 1.19 0.364 0.21 0.686 0.462 0.336 0.252 0.574 0.56 0.252 0.308 0.392 0.7 0.14 0.378 0.14 0.868 0 0.602-0.196 1.106-0.196 0.49-0.574 0.854-0.378 0.35-0.924 0.56-0.546 0.196-1.246 0.196-0.672 0-1.19-0.196t-0.882-0.532q-0.35-0.336-0.532-0.784-0.182-0.462-0.182-0.994zm4.634-0.14q0-0.42-0.168-0.728-0.168-0.322-0.448-0.574-0.266-0.266-0.616-0.476t-0.728-0.406q-0.854 0.476-1.218 1.064t-0.364 1.12q0 0.336 0.112 0.644t0.336 0.532 0.546 0.364q0.336 0.126 0.77 0.126 0.35 0 0.672-0.098 0.322-0.112 0.56-0.308 0.252-0.21 0.392-0.518 0.154-0.322 0.154-0.742zm-3.318-5.068q0 0.392 0.154 0.7 0.154 0.294 0.406 0.532 0.266 0.238 0.602 0.448 0.336 0.196 0.7 0.378 0.63-0.49 0.924-0.966 0.308-0.476 0.308-1.05 0-0.714-0.448-1.092-0.434-0.392-1.05-0.392-0.378 0-0.672 0.126t-0.504 0.322-0.322 0.462q-0.098 0.252-0.098 0.532z"/>
</g>
<path d="m260.21 197.9q0 0.35-0.112 0.714t-0.336 0.686q-0.224 0.308-0.574 0.546t-0.826 0.364v0.056q0.42 0.07 0.798 0.238 0.392 0.168 0.686 0.462t0.476 0.714 0.182 0.994q0 0.756-0.322 1.316-0.308 0.546-0.826 0.896-0.504 0.35-1.162 0.518t-1.344 0.168q-0.238 0-0.56 0t-0.672-0.028q-0.35-0.014-0.7-0.056-0.35-0.028-0.616-0.098v-9.646q0.518-0.084 1.204-0.14t1.498-0.056q0.546 0 1.106 0.098 0.574 0.084 1.036 0.35 0.462 0.252 0.756 0.714 0.308 0.462 0.308 1.19zm-3.248 6.664q0.448 0 0.868-0.098 0.42-0.112 0.742-0.336 0.322-0.238 0.504-0.574 0.196-0.336 0.196-0.798 0-0.574-0.238-0.924-0.224-0.35-0.602-0.546-0.364-0.196-0.826-0.266t-0.924-0.07h-1.218v3.514q0.098 0.028 0.28 0.042t0.392 0.028 0.434 0.028q0.224 0 0.392 0zm-0.77-4.592q0.238 0 0.574-0.014t0.56-0.042q0.336-0.112 0.63-0.266 0.294-0.168 0.518-0.378 0.238-0.224 0.364-0.504 0.14-0.294 0.14-0.63 0-0.462-0.182-0.756-0.168-0.308-0.462-0.49t-0.672-0.252q-0.378-0.084-0.77-0.084-0.462 0-0.854 0.028-0.378 0.014-0.574 0.056v3.332h0.728z"/>
<path d="m262.48 205.46v-9.8h1.162v8.764h3.206v-8.764h1.162v8.764h3.206v-8.764h1.162v9.8h-9.898z"/>
<path d="m275.67 199.93h4.032q-0.07-0.854-0.336-1.498-0.266-0.658-0.686-1.078-0.42-0.434-0.98-0.63-0.546-0.196-1.19-0.196-0.658 0-1.176 0.112-0.504 0.112-0.826 0.308l-0.308-0.91q0.434-0.252 1.078-0.392 0.644-0.154 1.372-0.154 0.896 0 1.666 0.28t1.33 0.896q0.574 0.602 0.896 1.568t0.322 2.324q0 1.372-0.364 2.338t-0.994 1.582q-0.616 0.602-1.442 0.882-0.812 0.266-1.708 0.266-0.7 0-1.246-0.098-0.532-0.098-0.91-0.252l0.308-1.022q0.322 0.154 0.84 0.252 0.518 0.084 1.078 0.084t1.12-0.168q0.574-0.182 1.036-0.616t0.77-1.134 0.364-1.708h-4.046v-1.036z"/>
<path d="m282.47 200.91h3.388v1.036h-3.388v-1.036z"/>
<path d="m287.42 198.62q0-0.672 0.196-1.246t0.574-0.994 0.938-0.658q0.574-0.238 1.33-0.238 1.428 0 2.226 0.924t0.798 2.604q0 1.582-0.364 2.772-0.35 1.176-0.98 1.988t-1.498 1.274q-0.854 0.448-1.862 0.574l-0.252-0.896q0.812-0.126 1.456-0.476 0.658-0.35 1.12-0.882 0.476-0.532 0.77-1.204 0.294-0.686 0.406-1.484-0.378 0.448-0.84 0.63-0.448 0.168-1.19 0.168-0.574 0-1.092-0.182-0.504-0.196-0.896-0.56t-0.616-0.896-0.224-1.218zm1.162-0.112q0 0.994 0.518 1.498 0.532 0.49 1.386 0.49 0.686 0 1.176-0.224t0.7-0.588q0.028-0.182 0.028-0.322t0-0.294q0-0.504-0.126-0.966-0.112-0.476-0.35-0.84-0.238-0.378-0.63-0.588-0.378-0.21-0.896-0.21-0.854 0-1.33 0.546-0.476 0.532-0.476 1.498z"/>
<g fill="#77aca2">
<path d="m260.21 220.83q0 0.35-0.112 0.714t-0.336 0.686q-0.224 0.308-0.574 0.546t-0.826 0.364v0.056q0.42 0.07 0.798 0.238 0.392 0.168 0.686 0.462t0.476 0.714 0.182 0.994q0 0.756-0.322 1.316-0.308 0.546-0.826 0.896-0.504 0.35-1.162 0.518t-1.344 0.168q-0.238 0-0.56 0t-0.672-0.028q-0.35-0.014-0.7-0.056-0.35-0.028-0.616-0.098v-9.646q0.518-0.084 1.204-0.14t1.498-0.056q0.546 0 1.106 0.098 0.574 0.084 1.036 0.35 0.462 0.252 0.756 0.714 0.308 0.462 0.308 1.19zm-3.248 6.664q0.448 0 0.868-0.098 0.42-0.112 0.742-0.336 0.322-0.238 0.504-0.574 0.196-0.336 0.196-0.798 0-0.574-0.238-0.924-0.224-0.35-0.602-0.546-0.364-0.196-0.826-0.266t-0.924-0.07h-1.218v3.514q0.098 0.028 0.28 0.042t0.392 0.028 0.434 0.028q0.224 0 0.392 0zm-0.77-4.592q0.238 0 0.574-0.014t0.56-0.042q0.336-0.112 0.63-0.266 0.294-0.168 0.518-0.378 0.238-0.224 0.364-0.504 0.14-0.294 0.14-0.63 0-0.462-0.182-0.756-0.168-0.308-0.462-0.49t-0.672-0.252q-0.378-0.084-0.77-0.084-0.462 0-0.854 0.028-0.378 0.014-0.574 0.056v3.332h0.728z"/>
<path d="m262.48 228.39v-9.8h1.162v8.764h3.206v-8.764h1.162v8.764h3.206v-8.764h1.162v9.8h-9.898z"/>
<path d="m275.67 222.86h4.032q-0.07-0.854-0.336-1.498-0.266-0.658-0.686-1.078-0.42-0.434-0.98-0.63-0.546-0.196-1.19-0.196-0.658 0-1.176 0.112-0.504 0.112-0.826 0.308l-0.308-0.91q0.434-0.252 1.078-0.392 0.644-0.154 1.372-0.154 0.896 0 1.666 0.28t1.33 0.896q0.574 0.602 0.896 1.568t0.322 2.324q0 1.372-0.364 2.338t-0.994 1.582q-0.616 0.602-1.442 0.882-0.812 0.266-1.708 0.266-0.7 0-1.246-0.098-0.532-0.098-0.91-0.252l0.308-1.022q0.322 0.154 0.84 0.252 0.518 0.084 1.078 0.084t1.12-0.168q0.574-0.182 1.036-0.616t0.77-1.134 0.364-1.708h-4.046v-1.036z"/>
<path d="m282.47 223.84h3.388v1.036h-3.388v-1.036z"/>
<path d="m288.2 227.36h1.96v-6.776l0.14-0.826-0.56 0.658-1.54 1.106-0.532-0.714 3.08-2.38h0.504v8.932h1.918v1.036h-4.97v-1.036z"/>
<path d="m294.92 223.49q0-2.52 0.812-3.794 0.826-1.274 2.394-1.274 1.694 0 2.45 1.26 0.77 1.246 0.77 3.808 0 2.52-0.826 3.794-0.812 1.274-2.394 1.274-1.666 0-2.436-1.33t-0.77-3.738zm1.162 0q0 0.91 0.112 1.666 0.126 0.742 0.378 1.288 0.252 0.532 0.63 0.84 0.392 0.294 0.924 0.294 1.064 0 1.554-0.98 0.504-0.994 0.504-3.108 0-0.896-0.112-1.652-0.098-0.756-0.35-1.302-0.238-0.546-0.63-0.84t-0.966-0.294q-1.05 0-1.554 0.994-0.49 0.994-0.49 3.094z"/>
</g>
<path d="m260.21 243.77q0 0.35-0.112 0.714t-0.336 0.686q-0.224 0.308-0.574 0.546t-0.826 0.364v0.056q0.42 0.07 0.798 0.238 0.392 0.168 0.686 0.462t0.476 0.714 0.182 0.994q0 0.756-0.322 1.316-0.308 0.546-0.826 0.896-0.504 0.35-1.162 0.518t-1.344 0.168q-0.238 0-0.56 0t-0.672-0.028q-0.35-0.014-0.7-0.056-0.35-0.028-0.616-0.098v-9.646q0.518-0.084 1.204-0.14t1.498-0.056q0.546 0 1.106 0.098 0.574 0.084 1.036 0.35 0.462 0.252 0.756 0.714 0.308 0.462 0.308 1.19zm-3.248 6.664q0.448 0 0.868-0.098 0.42-0.112 0.742-0.336 0.322-0.238 0.504-0.574 0.196-0.336 0.196-0.798 0-0.574-0.238-0.924-0.224-0.35-0.602-0.546-0.364-0.196-0.826-0.266t-0.924-0.07h-1.218v3.514q0.098 0.028 0.28 0.042t0.392 0.028 0.434 0.028q0.224 0 0.392 0zm-0.77-4.592q0.238 0 0.574-0.014t0.56-0.042q0.336-0.112 0.63-0.266 0.294-0.168 0.518-0.378 0.238-0.224 0.364-0.504 0.14-0.294 0.14-0.63 0-0.462-0.182-0.756-0.168-0.308-0.462-0.49t-0.672-0.252q-0.378-0.084-0.77-0.084-0.462 0-0.854 0.028-0.378 0.014-0.574 0.056v3.332h0.728z"/>
<path d="m262.48 251.33v-9.8h1.162v8.764h3.206v-8.764h1.162v8.764h3.206v-8.764h1.162v9.8h-9.898z"/>
<path d="m275.67 245.8h4.032q-0.07-0.854-0.336-1.498-0.266-0.658-0.686-1.078-0.42-0.434-0.98-0.63-0.546-0.196-1.19-0.196-0.658 0-1.176 0.112-0.504 0.112-0.826 0.308l-0.308-0.91q0.434-0.252 1.078-0.392 0.644-0.154 1.372-0.154 0.896 0 1.666 0.28t1.33 0.896q0.574 0.602 0.896 1.568t0.322 2.324q0 1.372-0.364 2.338t-0.994 1.582q-0.616 0.602-1.442 0.882-0.812 0.266-1.708 0.266-0.7 0-1.246-0.098-0.532-0.098-0.91-0.252l0.308-1.022q0.322 0.154 0.84 0.252 0.518 0.084 1.078 0.084t1.12-0.168q0.574-0.182 1.036-0.616t0.77-1.134 0.364-1.708h-4.046v-1.036z"/>
<path d="m282.47 246.78h3.388v1.036h-3.388v-1.036z"/>
<path d="m288.2 250.29h1.96v-6.776l0.14-0.826-0.56 0.658-1.54 1.106-0.532-0.714 3.08-2.38h0.504v8.932h1.918v1.036h-4.97v-1.036z"/>
<path d="m295.83 250.29h1.96v-6.776l0.14-0.826-0.56 0.658-1.54 1.106-0.532-0.714 3.08-2.38h0.504v8.932h1.918v1.036h-4.97v-1.036z"/>
</g>
<g font-size="14px" font-family="&apos;PT Sans&apos;">
<g fill="#ac80a0">
<path d="m24.97 19.476q0-0.588-0.35-0.952-0.35-0.378-0.882-0.658-0.518-0.294-1.134-0.546t-1.148-0.602q-0.518-0.364-0.868-0.882-0.35-0.532-0.35-1.344 0-1.148 0.798-1.82t2.268-0.672q0.854 0 1.554 0.126t1.092 0.322l-0.35 1.022q-0.322-0.154-0.952-0.294-0.616-0.14-1.4-0.14-0.924 0-1.386 0.42-0.462 0.406-0.462 0.966 0 0.546 0.35 0.91t0.868 0.658q0.532 0.28 1.148 0.56t1.134 0.658q0.532 0.364 0.882 0.882t0.35 1.288q0 0.63-0.224 1.134t-0.658 0.868-1.05 0.56-1.4 0.196q-1.05 0-1.736-0.168-0.686-0.154-1.064-0.35l0.392-1.05q0.322 0.182 0.952 0.364 0.63 0.168 1.414 0.168 0.462 0 0.868-0.084 0.406-0.098 0.7-0.294 0.294-0.21 0.462-0.518 0.182-0.308 0.182-0.728z"/>
<path d="m27.35 16.732h2.464v-2.534h1.008v2.534h2.464v1.008h-2.464v2.52h-1.008v-2.52h-2.464v-1.008z"/>
<path d="m40.678 12.168h1.12v6.538q0 0.882-0.238 1.526-0.224 0.644-0.658 1.064-0.42 0.406-1.022 0.602t-1.33 0.196q-1.736 0-2.618-0.784t-0.882-2.38v-6.762h1.162v6.216q0 0.742 0.14 1.26 0.154 0.504 0.448 0.826 0.294 0.308 0.728 0.448 0.448 0.14 1.036 0.14 1.134 0 1.624-0.616 0.49-0.63 0.49-2.058v-6.216z"/>
<path d="m50.086 14.408q0 0.35-0.112 0.714t-0.336 0.686q-0.224 0.308-0.574 0.546t-0.826 0.364v0.056q0.42 0.07 0.798 0.238 0.392 0.168 0.686 0.462t0.476 0.714 0.182 0.994q0 0.756-0.322 1.316-0.308 0.546-0.826 0.896-0.504 0.35-1.162 0.518t-1.344 0.168q-0.238 0-0.56 0t-0.672-0.028q-0.35-0.014-0.7-0.056-0.35-0.028-0.616-0.098v-9.646q0.518-0.084 1.204-0.14t1.498-0.056q0.546 0 1.106 0.098 0.574 0.084 1.036 0.35 0.462 0.252 0.756 0.714 0.308 0.462 0.308 1.19zm-3.248 6.664q0.448 0 0.868-0.098 0.42-0.112 0.742-0.336 0.322-0.238 0.504-0.574 0.196-0.336 0.196-0.798 0-0.574-0.238-0.924-0.224-0.35-0.602-0.546-0.364-0.196-0.826-0.266t-0.924-0.07h-1.218v3.514q0.098 0.028 0.28 0.042t0.392 0.028 0.434 0.028q0.224 0 0.392 0zm-0.77-4.592q0.238 0 0.574-0.014t0.56-0.042q0.336-0.112 0.63-0.266 0.294-0.168 0.518-0.378 0.238-0.224 0.364-0.504 0.14-0.294 0.14-0.63 0-0.462-0.182-0.756-0.168-0.308-0.462-0.49t-0.672-0.252q-0.378-0.084-0.77-0.084-0.462 0-0.854 0.028-0.378 0.014-0.574 0.056v3.332h0.728z"/>
<path d="m58.626 21.562q-0.42 0.322-1.064 0.448t-1.372 0.126q-0.882 0-1.652-0.294-0.77-0.308-1.344-0.924t-0.91-1.568q-0.336-0.966-0.336-2.282 0-1.372 0.364-2.324 0.378-0.966 0.98-1.568 0.616-0.616 1.372-0.896t1.54-0.28q0.84 0 1.372 0.098 0.532 0.084 0.91 0.238l-0.28 1.022q-0.672-0.322-1.918-0.322-0.574 0-1.134 0.21t-1.008 0.686q-0.434 0.476-0.7 1.246t-0.266 1.89q0 1.008 0.252 1.764t0.686 1.26q0.448 0.504 1.036 0.756 0.602 0.252 1.302 0.252 0.63 0 1.092-0.126 0.476-0.126 0.798-0.322l0.28 0.91z"/>
<path d="m58.893 17.418h3.388v1.036h-3.388v-1.036z"/>
<path d="m64.618 20.932h1.96v-6.776l0.14-0.826-0.56 0.658-1.54 1.106-0.532-0.714 3.08-2.38h0.504v8.932h1.918v1.036h-4.97v-1.036z"/>
</g>
<g fill="#2292a4">
<path d="m24.97 65.348q0-0.588-0.35-0.952-0.35-0.378-0.882-0.658-0.518-0.294-1.134-0.546t-1.148-0.602q-0.518-0.364-0.868-0.882-0.35-0.532-0.35-1.344 0-1.148 0.798-1.82t2.268-0.672q0.854 0 1.554 0.126t1.092 0.322l-0.35 1.022q-0.322-0.154-0.952-0.294-0.616-0.14-1.4-0.14-0.924 0-1.386 0.42-0.462 0.406-0.462 0.966 0 0.546 0.35 0.91t0.868 0.658q0.532 0.28 1.148 0.56t1.134 0.658q0.532 0.364 0.882 0.882t0.35 1.288q0 0.63-0.224 1.134t-0.658 0.868-1.05 0.56-1.4 0.196q-1.05 0-1.736-0.168-0.686-0.154-1.064-0.35l0.392-1.05q0.322 0.182 0.952 0.364 0.63 0.168 1.414 0.168 0.462 0 0.868-0.084 0.406-0.098 0.7-0.294 0.294-0.21 0.462-0.518 0.182-0.308 0.182-0.728z"/>
<path d="m27.35 62.604h2.464v-2.534h1.008v2.534h2.464v1.008h-2.464v2.52h-1.008v-2.52h-2.464v-1.008z"/>
<path d="m40.678 58.04h1.12v6.538q0 0.882-0.238 1.526-0.224 0.644-0.658 1.064-0.42 0.406-1.022 0.602t-1.33 0.196q-1.736 0-2.618-0.784t-0.882-2.38v-6.762h1.162v6.216q0 0.742 0.14 1.26 0.154 0.504 0.448 0.826 0.294 0.308 0.728 0.448 0.448 0.14 1.036 0.14 1.134 0 1.624-0.616 0.49-0.63 0.49-2.058v-6.216z"/>
<path d="m50.086 60.28q0 0.35-0.112 0.714t-0.336 0.686q-0.224 0.308-0.574 0.546t-0.826 0.364v0.056q0.42 0.07 0.798 0.238 0.392 0.168 0.686 0.462t0.476 0.714 0.182 0.994q0 0.756-0.322 1.316-0.308 0.546-0.826 0.896-0.504 0.35-1.162 0.518t-1.344 0.168q-0.238 0-0.56 0t-0.672-0.028q-0.35-0.014-0.7-0.056-0.35-0.028-0.616-0.098v-9.646q0.518-0.084 1.204-0.14t1.498-0.056q0.546 0 1.106 0.098 0.574 0.084 1.036 0.35 0.462 0.252 0.756 0.714 0.308 0.462 0.308 1.19zm-3.248 6.664q0.448 0 0.868-0.098 0.42-0.112 0.742-0.336 0.322-0.238 0.504-0.574 0.196-0.336 0.196-0.798 0-0.574-0.238-0.924-0.224-0.35-0.602-0.546-0.364-0.196-0.826-0.266t-0.924-0.07h-1.218v3.514q0.098 0.028 0.28 0.042t0.392 0.028 0.434 0.028q0.224 0 0.392 0zm-0.77-4.592q0.238 0 0.574-0.014t0.56-0.042q0.336-0.112 0.63-0.266 0.294-0.168 0.518-0.378 0.238-0.224 0.364-0.504 0.14-0.294 0.14-0.63 0-0.462-0.182-0.756-0.168-0.308-0.462-0.49t-0.672-0.252q-0.378-0.084-0.77-0.084-0.462 0-0.854 0.028-0.378 0.014-0.574 0.056v3.332h0.728z"/>
<path d="m58.626 67.434q-0.42 0.322-1.064 0.448t-1.372 0.126q-0.882 0-1.652-0.294-0.77-0.308-1.344-0.924t-0.91-1.568q-0.336-0.966-0.336-2.282 0-1.372 0.364-2.324 0.378-0.966 0.98-1.568 0.616-0.616 1.372-0.896t1.54-0.28q0.84 0 1.372 0.098 0.532 0.084 0.91 0.238l-0.28 1.022q-0.672-0.322-1.918-0.322-0.574 0-1.134 0.21t-1.008 0.686q-0.434 0.476-0.7 1.246t-0.266 1.89q0 1.008 0.252 1.764t0.686 1.26q0.448 0.504 1.036 0.756 0.602 0.252 1.302 0.252 0.63 0 1.092-0.126 0.476-0.126 0.798-0.322l0.28 0.91z"/>
<path d="m58.893 63.29h3.388v1.036h-3.388v-1.036z"/>
<path d="m66.382 67.028q0.476 0 0.882-0.14t0.7-0.406q0.294-0.28 0.462-0.658t0.168-0.826q0-0.98-0.588-1.456-0.574-0.476-1.596-0.476h-1.036v-0.406l2.016-3.108 0.644-0.616-0.91 0.14h-2.772v-1.036h4.998v0.406l-2.226 3.346-0.49 0.406v0.028l0.476-0.098q0.56 0.014 1.036 0.21 0.476 0.182 0.826 0.546 0.35 0.35 0.546 0.854 0.196 0.49 0.196 1.12 0 0.756-0.266 1.344t-0.728 0.994q-0.448 0.392-1.064 0.602t-1.302 0.21q-0.63 0-1.134-0.098t-0.882-0.252l0.294-0.994q0.322 0.154 0.756 0.266 0.448 0.098 0.994 0.098z"/>
</g>
<g fill="#d96c06">
<path d="m24.97 88.284q0-0.588-0.35-0.952-0.35-0.378-0.882-0.658-0.518-0.294-1.134-0.546t-1.148-0.602q-0.518-0.364-0.868-0.882-0.35-0.532-0.35-1.344 0-1.148 0.798-1.82t2.268-0.672q0.854 0 1.554 0.126t1.092 0.322l-0.35 1.022q-0.322-0.154-0.952-0.294-0.616-0.14-1.4-0.14-0.924 0-1.386 0.42-0.462 0.406-0.462 0.966 0 0.546 0.35 0.91t0.868 0.658q0.532 0.28 1.148 0.56t1.134 0.658q0.532 0.364 0.882 0.882t0.35 1.288q0 0.63-0.224 1.134t-0.658 0.868-1.05 0.56-1.4 0.196q-1.05 0-1.736-0.168-0.686-0.154-1.064-0.35l0.392-1.05q0.322 0.182 0.952 0.364 0.63 0.168 1.414 0.168 0.462 0 0.868-0.084 0.406-0.098 0.7-0.294 0.294-0.21 0.462-0.518 0.182-0.308 0.182-0.728z"/>
<path d="m27.35 85.54h2.464v-2.534h1.008v2.534h2.464v1.008h-2.464v2.52h-1.008v-2.52h-2.464v-1.008z"/>
<path d="m40.678 80.976h1.12v6.538q0 0.882-0.238 1.526-0.224 0.644-0.658 1.064-0.42 0.406-1.022 0.602t-1.33 0.196q-1.736 0-2.618-0.784t-0.882-2.38v-6.762h1.162v6.216q0 0.742 0.14 1.26 0.154 0.504 0.448 0.826 0.294 0.308 0.728 0.448 0.448 0.14 1.036 0.14 1.134 0 1.624-0.616 0.49-0.63 0.49-2.058v-6.216z"/>
<path d="m50.086 83.216q0 0.35-0.112 0.714t-0.336 0.686q-0.224 0.308-0.574 0.546t-0.826 0.364v0.056q0.42 0.07 0.798 0.238 0.392 0.168 0.686 0.462t0.476 0.714 0.182 0.994q0 0.756-0.322 1.316-0.308 0.546-0.826 0.896-0.504 0.35-1.162 0.518t-1.344 0.168q-0.238 0-0.56 0t-0.672-0.028q-0.35-0.014-0.7-0.056-0.35-0.028-0.616-0.098v-9.646q0.518-0.084 1.204-0.14t1.498-0.056q0.546 0 1.106 0.098 0.574 0.084 1.036 0.35 0.462 0.252 0.756 0.714 0.308 0.462 0.308 1.19zm-3.248 6.664q0.448 0 0.868-0.098 0.42-0.112 0.742-0.336 0.322-0.238 0.504-0.574 0.196-0.336 0.196-0.798 0-0.574-0.238-0.924-0.224-0.35-0.602-0.546-0.364-0.196-0.826-0.266t-0.924-0.07h-1.218v3.514q0.098 0.028 0.28 0.042t0.392 0.028 0.434 0.028q0.224 0 0.392 0zm-0.77-4.592q0.238 0 0.574-0.014t0.56-0.042q0.336-0.112 0.63-0.266 0.294-0.168 0.518-0.378 0.238-0.224 0.364-0.504 0.14-0.294 0.14-0.63 0-0.462-0.182-0.756-0.168-0.308-0.462-0.49t-0.672-0.252q-0.378-0.084-0.77-0.084-0.462 0-0.854 0.028-0.378 0.014-0.574 0.056v3.332h0.728z"/>
<path d="m58.626 90.37q-0.42 0.322-1.064 0.448t-1.372 0.126q-0.882 0-1.652-0.294-0.77-0.308-1.344-0.924t-0.91-1.568q-0.336-0.966-0.336-2.282 0-1.372 0.364-2.324 0.378-0.966 0.98-1.568 0.616-0.616 1.372-0.896t1.54-0.28q0.84 0 1.372 0.098 0.532 0.084 0.91 0.238l-0.28 1.022q-0.672-0.322-1.918-0.322-0.574 0-1.134 0.21t-1.008 0.686q-0.434 0.476-0.7 1.246t-0.266 1.89q0 1.008 0.252 1.764t0.686 1.26q0.448 0.504 1.036 0.756 0.602 0.252 1.302 0.252 0.63 0 1.092-0.126 0.476-0.126 0.798-0.322l0.28 0.91z"/>
<path d="m58.893 86.226h3.388v1.036h-3.388v-1.036z"/>
<path d="m70.442 87.766h-1.652v3.01h-1.092v-3.01h-4.312v-0.462l4.648-6.482h0.756v5.964h1.652v0.98zm-2.744-4.032 0.14-1.148h-0.042l-0.49 0.952-1.974 2.674-0.672 0.686 0.98-0.112h2.058v-3.052z"/>
</g>
<g fill="#bdbf09">
<path d="m24.97 42.412q0-0.588-0.35-0.952-0.35-0.378-0.882-0.658-0.518-0.294-1.134-0.546t-1.148-0.602q-0.518-0.364-0.868-0.882-0.35-0.532-0.35-1.344 0-1.148 0.798-1.82t2.268-0.672q0.854 0 1.554 0.126t1.092 0.322l-0.35 1.022q-0.322-0.154-0.952-0.294-0.616-0.14-1.4-0.14-0.924 0-1.386 0.42-0.462 0.406-0.462 0.966 0 0.546 0.35 0.91t0.868 0.658q0.532 0.28 1.148 0.56t1.134 0.658q0.532 0.364 0.882 0.882t0.35 1.288q0 0.63-0.224 1.134t-0.658 0.868-1.05 0.56-1.4 0.196q-1.05 0-1.736-0.168-0.686-0.154-1.064-0.35l0.392-1.05q0.322 0.182 0.952 0.364 0.63 0.168 1.414 0.168 0.462 0 0.868-0.084 0.406-0.098 0.7-0.294 0.294-0.21 0.462-0.518 0.182-0.308 0.182-0.728z"/>
<path d="m27.35 39.668h2.464v-2.534h1.008v2.534h2.464v1.008h-2.464v2.52h-1.008v-2.52h-2.464v-1.008z"/>
<path d="m40.678 35.104h1.12v6.538q0 0.882-0.238 1.526-0.224 0.644-0.658 1.064-0.42 0.406-1.022 0.602t-1.33 0.196q-1.736 0-2.618-0.784t-0.882-2.38v-6.762h1.162v6.216q0 0.742 0.14 1.26 0.154 0.504 0.448 0.826 0.294 0.308 0.728 0.448 0.448 0.14 1.036 0.14 1.134 0 1.624-0.616 0.49-0.63 0.49-2.058v-6.216z"/>
<path d="m50.086 37.344q0 0.35-0.112 0.714t-0.336 0.686q-0.224 0.308-0.574 0.546t-0.826 0.364v0.056q0.42 0.07 0.798 0.238 0.392 0.168 0.686 0.462t0.476 0.714 0.182 0.994q0 0.756-0.322 1.316-0.308 0.546-0.826 0.896-0.504 0.35-1.162 0.518t-1.344 0.168q-0.238 0-0.56 0t-0.672-0.028q-0.35-0.014-0.7-0.056-0.35-0.028-0.616-0.098v-9.646q0.518-0.084 1.204-0.14t1.498-0.056q0.546 0 1.106 0.098 0.574 0.084 1.036 0.35 0.462 0.252 0.756 0.714 0.308 0.462 0.308 1.19zm-3.248 6.664q0.448 0 0.868-0.098 0.42-0.112 0.742-0.336 0.322-0.238 0.504-0.574 0.196-0.336 0.196-0.798 0-0.574-0.238-0.924-0.224-0.35-0.602-0.546-0.364-0.196-0.826-0.266t-0.924-0.07h-1.218v3.514q0.098 0.028 0.28 0.042t0.392 0.028 0.434 0.028q0.224 0 0.392 0zm-0.77-4.592q0.238 0 0.574-0.014t0.56-0.042q0.336-0.112 0.63-0.266 0.294-0.168 0.518-0.378 0.238-0.224 0.364-0.504 0.14-0.294 0.14-0.63 0-0.462-0.182-0.756-0.168-0.308-0.462-0.49t-0.672-0.252q-0.378-0.084-0.77-0.084-0.462 0-0.854 0.028-0.378 0.014-0.574 0.056v3.332h0.728z"/>
<path d="m58.626 44.498q-0.42 0.322-1.064 0.448t-1.372 0.126q-0.882 0-1.652-0.294-0.77-0.308-1.344-0.924t-0.91-1.568q-0.336-0.966-0.336-2.282 0-1.372 0.364-2.324 0.378-0.966 0.98-1.568 0.616-0.616 1.372-0.896t1.54-0.28q0.84 0 1.372 0.098 0.532 0.084 0.91 0.238l-0.28 1.022q-0.672-0.322-1.918-0.322-0.574 0-1.134 0.21t-1.008 0.686q-0.434 0.476-0.7 1.246t-0.266 1.89q0 1.008 0.252 1.764t0.686 1.26q0.448 0.504 1.036 0.756 0.602 0.252 1.302 0.252 0.63 0 1.092-0.126 0.476-0.126 0.798-0.322l0.28 0.91z"/>
<path d="m58.893 40.354h3.388v1.036h-3.388v-1.036z"/>
<path d="m69.35 37.33q0 0.742-0.28 1.526-0.266 0.77-0.714 1.554-0.434 0.784-0.98 1.54-0.546 0.742-1.092 1.414l-0.686 0.602v0.056l0.896-0.154h3.052v1.036h-5.572v-0.406q0.308-0.322 0.742-0.798t0.896-1.05q0.476-0.588 0.924-1.232 0.462-0.658 0.826-1.33 0.378-0.672 0.602-1.33t0.224-1.246q0-0.686-0.392-1.134-0.392-0.462-1.19-0.462-0.532 0-1.036 0.224-0.504 0.21-0.868 0.49l-0.462-0.798q0.49-0.42 1.162-0.658t1.442-0.238q0.602 0 1.064 0.182 0.462 0.168 0.784 0.49t0.49 0.77q0.168 0.434 0.168 0.952z"/>
</g>
<g fill="#77aca2">
<path d="m24.97 157.09q0-0.588-0.35-0.952-0.35-0.378-0.882-0.658-0.518-0.294-1.134-0.546t-1.148-0.602q-0.518-0.364-0.868-0.882-0.35-0.532-0.35-1.344 0-1.148 0.798-1.82t2.268-0.672q0.854 0 1.554 0.126t1.092 0.322l-0.35 1.022q-0.322-0.154-0.952-0.294-0.616-0.14-1.4-0.14-0.924 0-1.386 0.42-0.462 0.406-0.462 0.966 0 0.546 0.35 0.91t0.868 0.658q0.532 0.28 1.148 0.56t1.134 0.658q0.532 0.364 0.882 0.882t0.35 1.288q0 0.63-0.224 1.134t-0.658 0.868-1.05 0.56-1.4 0.196q-1.05 0-1.736-0.168-0.686-0.154-1.064-0.35l0.392-1.05q0.322 0.182 0.952 0.364 0.63 0.168 1.414 0.168 0.462 0 0.868-0.084 0.406-0.098 0.7-0.294 0.294-0.21 0.462-0.518 0.182-0.308 0.182-0.728z"/>
<path d="m27.35 154.35h2.464v-2.534h1.008v2.534h2.464v1.008h-2.464v2.52h-1.008v-2.52h-2.464v-1.008z"/>
<path d="m40.678 149.78h1.12v6.538q0 0.882-0.238 1.526-0.224 0.644-0.658 1.064-0.42 0.406-1.022 0.602t-1.33 0.196q-1.736 0-2.618-0.784t-0.882-2.38v-6.762h1.162v6.216q0 0.742 0.14 1.26 0.154 0.504 0.448 0.826 0.294 0.308 0.728 0.448 0.448 0.14 1.036 0.14 1.134 0 1.624-0.616 0.49-0.63 0.49-2.058v-6.216z"/>
<path d="m50.086 152.02q0 0.35-0.112 0.714t-0.336 0.686q-0.224 0.308-0.574 0.546t-0.826 0.364v0.056q0.42 0.07 0.798 0.238 0.392 0.168 0.686 0.462t0.476 0.714 0.182 0.994q0 0.756-0.322 1.316-0.308 0.546-0.826 0.896-0.504 0.35-1.162 0.518t-1.344 0.168q-0.238 0-0.56 0t-0.672-0.028q-0.35-0.014-0.7-0.056-0.35-0.028-0.616-0.098v-9.646q0.518-0.084 1.204-0.14t1.498-0.056q0.546 0 1.106 0.098 0.574 0.084 1.036 0.35 0.462 0.252 0.756 0.714 0.308 0.462 0.308 1.19zm-3.248 6.664q0.448 0 0.868-0.098 0.42-0.112 0.742-0.336 0.322-0.238 0.504-0.574 0.196-0.336 0.196-0.798 0-0.574-0.238-0.924-0.224-0.35-0.602-0.546-0.364-0.196-0.826-0.266t-0.924-0.07h-1.218v3.514q0.098 0.028 0.28 0.042t0.392 0.028 0.434 0.028q0.224 0 0.392 0zm-0.77-4.592q0.238 0 0.574-0.014t0.56-0.042q0.336-0.112 0.63-0.266 0.294-0.168 0.518-0.378 0.238-0.224 0.364-0.504 0.14-0.294 0.14-0.63 0-0.462-0.182-0.756-0.168-0.308-0.462-0.49t-0.672-0.252q-0.378-0.084-0.77-0.084-0.462 0-0.854 0.028-0.378 0.014-0.574 0.056v3.332h0.728z"/>
<path d="m58.626 159.18q-0.42 0.322-1.064 0.448t-1.372 0.126q-0.882 0-1.652-0.294-0.77-0.308-1.344-0.924t-0.91-1.568q-0.336-0.966-0.336-2.282 0-1.372 0.364-2.324 0.378-0.966 0.98-1.568 0.616-0.616 1.372-0.896t1.54-0.28q0.84 0 1.372 0.098 0.532 0.084 0.91 0.238l-0.28 1.022q-0.672-0.322-1.918-0.322-0.574 0-1.134 0.21t-1.008 0.686q-0.434 0.476-0.7 1.246t-0.266 1.89q0 1.008 0.252 1.764t0.686 1.26q0.448 0.504 1.036 0.756 0.602 0.252 1.302 0.252 0.63 0 1.092-0.126 0.476-0.126 0.798-0.322l0.28 0.91z"/>
<path d="m58.893 155.03h3.388v1.036h-3.388v-1.036z"/>
<path d="m64.646 159.58 3.514-8.204 0.616-0.686-0.826 0.126h-3.99v-1.036h5.852v0.378l-4.032 9.422h-1.134z"/>
</g>
</g>
<path d="m24.97 111.22q0-0.588-0.35-0.952-0.35-0.378-0.882-0.658-0.518-0.294-1.134-0.546t-1.148-0.602q-0.518-0.364-0.868-0.882-0.35-0.532-0.35-1.344 0-1.148 0.798-1.82t2.268-0.672q0.854 0 1.554 0.126t1.092 0.322l-0.35 1.022q-0.322-0.154-0.952-0.294-0.616-0.14-1.4-0.14-0.924 0-1.386 0.42-0.462 0.406-0.462 0.966 0 0.546 0.35 0.91t0.868 0.658q0.532 0.28 1.148 0.56t1.134 0.658q0.532 0.364 0.882 0.882t0.35 1.288q0 0.63-0.224 1.134t-0.658 0.868-1.05 0.56-1.4 0.196q-1.05 0-1.736-0.168-0.686-0.154-1.064-0.35l0.392-1.05q0.322 0.182 0.952 0.364 0.63 0.168 1.414 0.168 0.462 0 0.868-0.084 0.406-0.098 0.7-0.294 0.294-0.21 0.462-0.518 0.182-0.308 0.182-0.728z"/>
<path d="m27.35 108.48h2.464v-2.534h1.008v2.534h2.464v1.008h-2.464v2.52h-1.008v-2.52h-2.464v-1.008z"/>
<path d="m40.678 103.91h1.12v6.538q0 0.882-0.238 1.526-0.224 0.644-0.658 1.064-0.42 0.406-1.022 0.602t-1.33 0.196q-1.736 0-2.618-0.784t-0.882-2.38v-6.762h1.162v6.216q0 0.742 0.14 1.26 0.154 0.504 0.448 0.826 0.294 0.308 0.728 0.448 0.448 0.14 1.036 0.14 1.134 0 1.624-0.616 0.49-0.63 0.49-2.058v-6.216z"/>
<path d="m50.086 106.15q0 0.35-0.112 0.714t-0.336 0.686q-0.224 0.308-0.574 0.546t-0.826 0.364v0.056q0.42 0.07 0.798 0.238 0.392 0.168 0.686 0.462t0.476 0.714 0.182 0.994q0 0.756-0.322 1.316-0.308 0.546-0.826 0.896-0.504 0.35-1.162 0.518t-1.344 0.168q-0.238 0-0.56 0t-0.672-0.028q-0.35-0.014-0.7-0.056-0.35-0.028-0.616-0.098v-9.646q0.518-0.084 1.204-0.14t1.498-0.056q0.546 0 1.106 0.098 0.574 0.084 1.036 0.35 0.462 0.252 0.756 0.714 0.308 0.462 0.308 1.19zm-3.248 6.664q0.448 0 0.868-0.098 0.42-0.112 0.742-0.336 0.322-0.238 0.504-0.574 0.196-0.336 0.196-0.798 0-0.574-0.238-0.924-0.224-0.35-0.602-0.546-0.364-0.196-0.826-0.266t-0.924-0.07h-1.218v3.514q0.098 0.028 0.28 0.042t0.392 0.028 0.434 0.028q0.224 0 0.392 0zm-0.77-4.592q0.238 0 0.574-0.014t0.56-0.042q0.336-0.112 0.63-0.266 0.294-0.168 0.518-0.378 0.238-0.224 0.364-0.504 0.14-0.294 0.14-0.63 0-0.462-0.182-0.756-0.168-0.308-0.462-0.49t-0.672-0.252q-0.378-0.084-0.77-0.084-0.462 0-0.854 0.028-0.378 0.014-0.574 0.056v3.332h0.728z"/>
<path d="m58.626 113.31q-0.42 0.322-1.064 0.448t-1.372 0.126q-0.882 0-1.652-0.294-0.77-0.308-1.344-0.924t-0.91-1.568q-0.336-0.966-0.336-2.282 0-1.372 0.364-2.324 0.378-0.966 0.98-1.568 0.616-0.616 1.372-0.896t1.54-0.28q0.84 0 1.372 0.098 0.532 0.084 0.91 0.238l-0.28 1.022q-0.672-0.322-1.918-0.322-0.574 0-1.134 0.21t-1.008 0.686q-0.434 0.476-0.7 1.246t-0.266 1.89q0 1.008 0.252 1.764t0.686 1.26q0.448 0.504 1.036 0.756 0.602 0.252 1.302 0.252 0.63 0 1.092-0.126 0.476-0.126 0.798-0.322l0.28 0.91z"/>
<path d="m58.893 109.16h3.388v1.036h-3.388v-1.036z"/>
<path d="m66.088 112.9q0.966 0 1.596-0.56t0.63-1.624q0-1.022-0.63-1.526-0.616-0.504-1.708-0.504l-1.176 0.07v-4.844h4.368v1.036h-3.318v2.786l0.602-0.028q1.386 0.014 2.184 0.77t0.798 2.17q0 0.784-0.266 1.4-0.266 0.602-0.728 1.008-0.448 0.406-1.064 0.616t-1.316 0.21q-0.63 0-1.064-0.07t-0.812-0.21l0.294-0.952q0.322 0.126 0.686 0.196 0.378 0.056 0.924 0.056z"/>
<path d="m24.97 134.16q0-0.588-0.35-0.952-0.35-0.378-0.882-0.658-0.518-0.294-1.134-0.546t-1.148-0.602q-0.518-0.364-0.868-0.882-0.35-0.532-0.35-1.344 0-1.148 0.798-1.82t2.268-0.672q0.854 0 1.554 0.126t1.092 0.322l-0.35 1.022q-0.322-0.154-0.952-0.294-0.616-0.14-1.4-0.14-0.924 0-1.386 0.42-0.462 0.406-0.462 0.966 0 0.546 0.35 0.91t0.868 0.658q0.532 0.28 1.148 0.56t1.134 0.658q0.532 0.364 0.882 0.882t0.35 1.288q0 0.63-0.224 1.134t-0.658 0.868-1.05 0.56-1.4 0.196q-1.05 0-1.736-0.168-0.686-0.154-1.064-0.35l0.392-1.05q0.322 0.182 0.952 0.364 0.63 0.168 1.414 0.168 0.462 0 0.868-0.084 0.406-0.098 0.7-0.294 0.294-0.21 0.462-0.518 0.182-0.308 0.182-0.728z"/>
<path d="m27.35 131.41h2.464v-2.534h1.008v2.534h2.464v1.008h-2.464v2.52h-1.008v-2.52h-2.464v-1.008z"/>
<path d="m40.678 126.85h1.12v6.538q0 0.882-0.238 1.526-0.224 0.644-0.658 1.064-0.42 0.406-1.022 0.602t-1.33 0.196q-1.736 0-2.618-0.784t-0.882-2.38v-6.762h1.162v6.216q0 0.742 0.14 1.26 0.154 0.504 0.448 0.826 0.294 0.308 0.728 0.448 0.448 0.14 1.036 0.14 1.134 0 1.624-0.616 0.49-0.63 0.49-2.058v-6.216z"/>
<path d="m50.086 129.09q0 0.35-0.112 0.714t-0.336 0.686q-0.224 0.308-0.574 0.546t-0.826 0.364v0.056q0.42 0.07 0.798 0.238 0.392 0.168 0.686 0.462t0.476 0.714 0.182 0.994q0 0.756-0.322 1.316-0.308 0.546-0.826 0.896-0.504 0.35-1.162 0.518t-1.344 0.168q-0.238 0-0.56 0t-0.672-0.028q-0.35-0.014-0.7-0.056-0.35-0.028-0.616-0.098v-9.646q0.518-0.084 1.204-0.14t1.498-0.056q0.546 0 1.106 0.098 0.574 0.084 1.036 0.35 0.462 0.252 0.756 0.714 0.308 0.462 0.308 1.19zm-3.248 6.664q0.448 0 0.868-0.098 0.42-0.112 0.742-0.336 0.322-0.238 0.504-0.574 0.196-0.336 0.196-0.798 0-0.574-0.238-0.924-0.224-0.35-0.602-0.546-0.364-0.196-0.826-0.266t-0.924-0.07h-1.218v3.514q0.098 0.028 0.28 0.042t0.392 0.028 0.434 0.028q0.224 0 0.392 0zm-0.77-4.592q0.238 0 0.574-0.014t0.56-0.042q0.336-0.112 0.63-0.266 0.294-0.168 0.518-0.378 0.238-0.224 0.364-0.504 0.14-0.294 0.14-0.63 0-0.462-0.182-0.756-0.168-0.308-0.462-0.49t-0.672-0.252q-0.378-0.084-0.77-0.084-0.462 0-0.854 0.028-0.378 0.014-0.574 0.056v3.332h0.728z"/>
<path d="m58.626 136.24q-0.42 0.322-1.064 0.448t-1.372 0.126q-0.882 0-1.652-0.294-0.77-0.308-1.344-0.924t-0.91-1.568q-0.336-0.966-0.336-2.282 0-1.372 0.364-2.324 0.378-0.966 0.98-1.568 0.616-0.616 1.372-0.896t1.54-0.28q0.84 0 1.372 0.098 0.532 0.084 0.91 0.238l-0.28 1.022q-0.672-0.322-1.918-0.322-0.574 0-1.134 0.21t-1.008 0.686q-0.434 0.476-0.7 1.246t-0.266 1.89q0 1.008 0.252 1.764t0.686 1.26q0.448 0.504 1.036 0.756 0.602 0.252 1.302 0.252 0.63 0 1.092-0.126 0.476-0.126 0.798-0.322l0.28 0.91z"/>
<path d="m58.893 132.1h3.388v1.036h-3.388v-1.036z"/>
<path d="m69.994 133.69q0 0.644-0.196 1.218-0.196 0.56-0.574 0.994-0.378 0.42-0.938 0.672-0.56 0.238-1.274 0.238-0.7 0-1.26-0.224t-0.966-0.658q-0.406-0.448-0.63-1.092-0.21-0.644-0.21-1.484 0-1.386 0.35-2.548 0.364-1.176 0.994-2.044t1.484-1.4q0.868-0.546 1.876-0.686l0.238 0.896q-0.784 0.14-1.428 0.532t-1.134 0.966q-0.476 0.574-0.784 1.288t-0.42 1.47q0.224-0.378 0.756-0.686 0.532-0.322 1.302-0.322 1.316 0 2.058 0.756 0.756 0.756 0.756 2.114zm-1.162 0.112q0-0.994-0.462-1.498t-1.428-0.504q-0.686 0-1.19 0.336-0.49 0.336-0.686 0.756-0.028 0.196-0.028 0.322t0 0.28q0 0.434 0.112 0.854 0.126 0.42 0.378 0.756 0.252 0.322 0.616 0.532 0.378 0.196 0.882 0.196 0.406 0 0.728-0.154 0.336-0.154 0.574-0.42t0.364-0.644q0.14-0.378 0.14-0.812z"/>
<g stroke-width=".8px" fill="none">
<path stroke="#ac80a0" d="m81.576 17.068 159.42 22.936"/>
<path stroke="#ac80a0" d="m241 62.94-159.42-45.872"/>
<path stroke="#2292a4" d="m81.684 62.94 159.32-22.936"/>
<g stroke="#d96c06">
<path d="m82.313 85.876 158.69 22.934"/>
<path d="m82.313 85.876 158.69 45.874"/>
<path d="m241 154.68-158.69-68.804"/>
</g>
<path stroke="#77aca2" d="m81.769 154.68 159.23 68.81"/>
<path stroke="#bdbf09" d="m241 177.62-159.51-137.62"/>
<path stroke="#ac80a0" d="m241 17.068h-159.42"/>
</g>
</svg>
