<svg xmlns="http://www.w3.org/2000/svg" viewBox="0 0 80 15"><path d="m0 .5v-.5h80v15h-80v-14.5m77.5 13.5q.5 0 .875-.125t.5-.5.125-.875 0-1 0-1 0-1 0-1 0-1 0-1 0-1 0-1 0-1 0-1-.125-.875-.5-.5-.875-.125-1 0-1 0-1 0-1 0-1 0-1 0-1 0-1 0-1 0-1 0-1 0-1 0-1 0-1 0-1 0-1 0-1 0-1 0-1 0-1 0-1 0-1 0-1 0-1 0-1 0-1 0-1 0-1 0-1 0-1 0-1 0-1 0-1 0-1 0-1 0-1 0-1 0-1 0-1 0-1 0-1 0-1 0-1 0-1 0-1 0-1 0-1 0-1 0-1 0-1 0-1 0h-1q-.5 0-1 0t-1 0-1 0-1 0-1 0-1 0-1 0-1 0-1 0-1 0-1 0-1 0-1 0-1 0-1 0-1 0-1 0-1 0-1 0-1 0-1 0-1 0-1 0-.875.125-.5.5-.125.875 0 1 0 1 0 1 0 1 0 1 0 1 0 1 0 1 0 1 0 1 .125.875.5.5.875.125 1 0 1 0 1 0 1 0 1 0h5q.5 0 1 0h5q.5 0 1 0t1 0 1 0 1 0 1 0 1 0 1 0h1q.5 0 1 0t1 0 1 0 1 0 1 0 1 0 1 0 1 0 1 0 1 0 1 0 1 0 1 0 1 0 1 0 1 0 1 0 1 0 1 0 1 0 1 0 1 0 1 0 1 0 1 0 1 0 1 0 1 0 1 0 1 0 1 0 1 0 1 0 1 0 1 0 1 0 1 0 1 0 1 0 1 0 1 0 1 0 1 0 1 0 1 0 1 0 1 0 1 0 1 0 1 0 1 0"/><path fill="#fff" d="m1.125 1.625q.125-.375.5-.5t.875-.125 1 0 1 0 1 0 1 0 1 0 1 0 1 0 1 0 1 0 1 0 1 0 1 0 1 0 1 0 1 0 1 0 1 0 1 0 1 0 1 0 1 0 1 0 1 0h.5l-.125.375q-.125.375.156.656l.281.281.126-.125-.126.125q-.124.125-.187.313l-.063.188.188-.563-.125.375q-.125.375-.125.875t0 1 0 1 0 1 0 1 0 1 0 1 0 1 0 1 .125.875l.125.375-.188-.562.063.187q.063.188.188.313l.125.125-.062-.063-.063-.062-.281.281q-.281.281-.156.656l.125.375h-.5q-.5 0-1 0t-1 0-1 0-1 0-1 0-1 0-1 0h-.5v-.5q0-.5-.5-.5h-.5l-.469.156.281-.094-.187.063q-.188.063-.313.188l-.063.063.063-.063-.594-.594-.156.094.156-.094q.157-.093.282-.218l-.25.25.25-.25q.25-.25.5-.5t.375-.625.25-.75.375-.625.375-.625.25-.75.375-.625.25-.5-.375-.375-.875-.125-1 0-1 0-1 0-1 0-.875.125-.5.5 0 .75.5.5.875.125.875.125.5.5 0 .75-.5.5-.875.125-1 0-.875-.125-.625-.375-.5-.5-.375-.625-.25-.75-.375-.625-.25-.5.25-.5.375-.625.25-.75.375-.625.5-.5.625-.375.875-.125 1 0 .875.125.5.5.25.75.5.5.875.125.875-.125.375-.375-.25-.5-.375-.625-.25-.75-.375-.625-.5-.5-.625-.375-.875-.125-1 0-1 0-1 0-1 0-.875.125-.5.5-.25.75-.375.625-.375.625-.25.75-.375.625-.375.625-.125.875.125.875.375.625.375.625.25.75.375.625.375.625.25.75l.125.375-.125-.375q.063.188.188.313l.125.125-.125-.125-.625.624.125.126-.125-.126q-.125-.124-.313-.187l.375.125-.375-.125q-.375-.125-.375.375v.5h-.5q-.5 0-1 0t-1 0-1 0-1 0-1 0-.875-.125-.5-.5-.125-.875 0-1 0-1 0-1 0-1 0-1 0-1 0-1 0-1 0-1 0-1 .125-.875"/><path fill="#fdfffc" d="m25.875 1.375l.125-.375h.5q.5 0 1 0t1 0 1 0 1 0 1 0 1 0 1 0 1 0 1 0 1 0 1 0 1 0 1 0 1 0 1 0 1 0 1 0 1 0 1 0 1 0 1 0 1 0 1 0 1 0 1 0 1 0 1 0 1 0 1 0 1 0 1 0 1 0 1 0 1 0 1 0 1 0 1 0 1 0 1 0 1 0 1 0 1 0 1 0 1 0 1 0 1 0 1 0 1 0 1 0 1 0 1 0 .875.125.5.5.125.875 0 1 0 1 0 1 0 1 0 1 0 1 0 1 0 1 0 1 0 1-.125.875-.5.5-.875.125-1 0-1 0-1 0-1 0-1 0-1 0-1 0-1 0-1 0-1 0-1 0-1 0-1 0-1 0-1 0-1 0-1 0-1 0-1 0-1 0-1 0-1 0-1 0-1 0-1 0-1 0-1 0-1 0-1 0-1 0-1 0-1 0-1 0-1 0-1 0-1 0-1 0-1 0-1 0-1 0-1 0-1 0-1 0-1 0-1 0-1 0-1 0-1 0-1 0-1 0-1 0h-.5l-.125-.375q-.125-.375.156-.656l.281-.281-.125-.126.125.125q.125.125.313.188l.188.062-.562-.188.375.125q.375.125.875.125t1 0 1 0 1 0 1 0 1 0 1 0 1 0 1 0 1 0 1 0 1 0 1 0 1 0 1 0 1 0 1 0 1 0 1 0 1 0 1 0 1 0 1 0 1 0 1 0 1 0 1 0 1 0 1 0 1 0 1 0 1 0 1 0 1 0 1 0 1 0 1 0 1 0 1 0 1 0 1 0 1 0 1 0 1 0 1 0 1 0 1 0 1 0 1 0 1 0 .875-.125.5-.5.125-.875 0-1 0-1 0-1 0-1 0-1 0-1 0-1 0-1-.125-.875-.5-.5-.875-.125-1 0-1 0-1 0-1 0-1 0-1 0-1 0-1 0-1 0-1 0-1 0-1 0-1 0-1 0-1 0-1 0-1 0-1 0-1 0-1 0-1 0-1 0-1 0-1 0-1 0-1 0-1 0-1 0-1 0-1 0-1 0-1 0-1 0-1 0-1 0-1 0-1 0-1 0-1 0-1 0-1 0-1 0-1 0-1 0-1 0-1 0-1 0-1 0-1 0-.875.125l.187-.063-.187.063q-.187.063-.313.188l-.062.063.062-.063-.281-.281q-.281-.281-.156-.656"/><path fill="#090" d="m9.125 2.625q.125-.375.5-.5t.875-.125 1 0 1 0 1 0 1 0 .875.125.625.375.5.5.375.625.25.75.375.625.25.5-.375.375-.875.125-.875-.125-.5-.5-.25-.75-.5-.5-.875-.125-1 0-.875.125-.625.375-.5.5-.375.625-.25.75-.375.625-.25.5.25.5.375.625.25.75.375.625.5.5.625.375.875.125 1 0 .875-.125.5-.5 0-.75-.5-.5-.875-.125-.875-.125-.5-.5 0-.75.5-.5.875-.125 1 0 1 0 1 0 1 0 .875.125.375.375-.25.5-.375.625-.25.75-.375.625-.375.625-.25.75-.375.625-.5.5-.625.375l-.375.125h-1.5q-.5 0-1 0h-2.5l-.375-.125q-.375-.125-.5-.5t-.25-.75-.375-.625-.375-.625-.25-.75-.375-.625-.375-.625-.125-.875.125-.875.375-.625.375-.625.25-.75.375-.625.375-.625.25-.75"/><path d="m26.13 2.625q.125-.375.5-.5t.875-.125 1 0 1 0 1 0 1 0 1 0 1 0 1 0 1 0 1 0 1 0 1 0 1 0 1 0 1 0 1 0 1 0 1 0 1 0 1 0 1 0 1 0 1 0 1 0 1 0 1 0 1 0 1 0 1 0 1 0 1 0 1 0 1 0 1 0 1 0 1 0 1 0 1 0 1 0 1 0 1 0 1 0 1 0 1 0 1 0 1 0 1 0 1 0 1 0 1 0 .875.125.5.5.125.875 0 1 0 1 0 1 0 1 0 1 0 1 0 1 0 1-.125.875-.5.5-.875.125-1 0-1 0-1 0-1 0-1 0-1 0-1 0-1 0-1 0-1 0-1 0-1 0-1 0-1 0-1 0-1 0-1 0-1 0-1 0-1 0-1 0-1 0-1 0-1 0-1 0-1 0-1 0-1 0-1 0-1 0-1 0-1 0-1 0-1 0-1 0-1 0-1 0-1 0-1 0-1 0-1 0-1 0-1 0-1 0-1 0-1 0-1 0-1 0-1 0-.875-.125-.5-.5-.125-.875 0-1 0-1 0-1 0-1 0-1 0-1 0-1 0-1 .125-.875m7.875 6.875q.25.25.5.25t.375-.375.125-.875 0-1 0-1-.125-.875-.375-.375-.375.375-.125.875-.125.875-.375.375-.5-.25-.5-.5-.5-.5-.5-.5-.5-.5-.5-.25-.375.375-.125.875 0 1 0 1 .125.875.375.375.375-.375.125-.875.125-.875.375-.375.5.25.5.5.5.5.5.5.5.5m4.625.375q.375.125.75 0t.625-.375.5-.5.375-.625 0-.75-.5-.5-.75 0-.375.375.25.5.25.5-.375.375-.75 0-.5-.5-.125-.875.125-.875.5-.5.875-.125.875-.125.375-.375-.375-.375-.875-.125-.875.125-.625.375-.5.5-.375.625-.125.875.125.875.375.625.5.5.625.375m4.5-.5q.125.375.375.375t.375-.375.125-.875 0-1 0-1-.125-.875-.375-.375-.375.375-.125.875 0 1 0 1 .125.875m7 0q.125.375.375.375t.375-.375.125-.875 0-1 0-1-.125-.875-.375-.375-.5.25-.5.5-.5.5-.5.5-.5.5-.5.25-.375-.375-.125-.875-.125-.875-.375-.375-.375.375-.125.875 0 1 0 1 .125.875.375.375.5-.25.5-.5.5-.5.5-.5.5-.5.5-.25.375.375.125.875.125.875m6.875.125q.25.25.5.25t.25-.25-.25-.5-.5-.5-.5-.5-.25-.5.25-.5.5-.5.5-.5.25-.5-.25-.25-.5.25-.5.5-.5.5-.5.25-.5-.25-.5-.5-.5-.5-.5-.25-.25.25.25.5.5.5.5.5.25.5-.25.5-.5.5-.5.5-.25.5.25.25.5-.25.5-.5.5-.5.5-.25.5.25.5.5.5.5"/><g fill="#fdfffc"><path d="m30.13 5.625q.125-.375.375-.375t.5.25.5.5.5.5.5.5.5.5.5.25.375-.375.125-.875.125-.875.375-.375.375.375.125.875 0 1 0 1-.125.875-.375.375-.5-.25-.5-.5-.5-.5-.5-.5-.5-.5-.5-.25-.375.375-.125.875-.125.875-.375.375-.375-.375-.125-.875 0-1 0-1 .125-.875"/><path d="m38 5.5q.25-.25.625-.375t.875-.125.875.125.375.375-.375.375-.875.125-.875.125-.5.5-.125.875.125.875.5.5.75 0 .375-.375-.25-.5-.25-.5.375-.375.75 0 .5.5 0 .75-.375.625-.5.5-.625.375-.75 0-.625-.375-.5-.5-.375-.625-.125-.875.125-.875.375-.625.5-.5"/><path d="m43.13 5.625q.125-.375.375-.375t.375.375.125.875 0 1 0 1-.125.875-.375.375-.375-.375-.125-.875 0-1 0-1 .125-.875"/><path d="m46.13 5.625q.125-.375.375-.375t.375.375.125.875.125.875l.125.375-.188-.563.063.188q.063.188.156.281l.047.047-.047-.047-.265.297q-.266.297-.266.547t.25.5l.25.25-.25.25q-.25.25-.5.25t-.375-.375-.125-.875 0-1 0-1 .125-.875m.937 3.813l.188-.188q-.125.125-.25.25l.063-.063"/><path d="m50 5.5q.25-.25.5-.25t.375.375.125.875 0 1 0 1-.125.875-.375.375-.375-.375-.125-.875-.125-.875l-.125-.375.188.563-.063-.188q-.063-.188-.156-.281l-.047-.047.047.047.265-.297q.266-.297.266-.547t-.25-.5l-.25-.25.25-.25m-.062.063l-.188.188q.125-.125.25-.25l-.063.063"/><path d="m53.25 5.5q0-.25.25-.25t.5.25.5.5.5.5.5.25.5-.25.5-.5.5-.5.5-.25.25.25-.25.5-.5.5-.5.5-.25.5.25.5.5.5.5.5.25.5-.25.25-.5-.25-.5-.5-.5-.5-.5-.25-.5.25-.5.5-.5.5-.5.25-.25-.25.25-.5.5-.5.5-.5.25-.5-.25-.5-.5-.5-.5-.5-.25-.5"/></g><path fill="#fff" d="m49 6.5q.25-.25.5-.5l.25-.25.25.25q.25.25.25.5t-.266.547l-.265.297.093.094-.093-.094q-.094-.094-.219-.094h0q-.125 0-.25.063l-.062.031.062-.031-.5-.563.25-.25m-.062.063l-.188.188q.125-.125.25-.25l.125-.125-.187.188m.874-.875l-.312.313q.125-.125.25-.25l.063-.063"/><path fill="#fdfffc" d="m48 7.5q.25-.25.5-.5l.25-.25.5.563.125-.063-.125.063q-.125.063-.25.188l-.125.125.125-.125q-.25.25-.5.5l-.25.25-.5-.563-.125.063.125-.063q.125-.063.25-.188l.125-.125-.125.125m.188.813l.312-.313q-.125.125-.25.25l-.125.125.063-.063m.624-1.625l-.312.313q.125-.125.25-.25l.063-.063"/><path fill="#fff" d="m46.75 8.5q0-.25.266-.547l.265-.297-.093-.094.093.094q.094.094.219.094h0q.125 0 .25-.063l.062-.031-.062.031.5.562-.25.25q-.25.25-.5.5l-.25.25-.25-.25q-.25-.25-.25-.5m.438.813l.312-.313q-.125.125-.25.25l-.125.125.063-.063m.874-.875l.188-.188q-.125.125-.25.25l.063-.063"/><path fill="#fefcfc" d="m8 13.5q0-.5.375-.375t.5.5l.125.375h-1v-.5"/><path fill="#fef8f8" d="m8.875 13.625l-.125-.375.125.375q-.063-.187-.188-.313l-.063-.062.063.062.625-.624-.125-.126.125.125q.125.125.313.188l.375.126v1h-1l-.125-.375"/><path fill="#fdf6f6" d="m10 13.5v-.5h1v1h-1v-.5"/><path fill="#fff" d="m11 13.5v-.5h1v1h-1v-.5"/><path fill="#fefefe" d="m12 13.5v-.5h.5q.5 0 1 0h.5v1h-.5q-.5 0-1 0h-.5v-.5"/><path fill="#fff" d="m14 13.5v-.5h1v1h-1v-.5"/><path fill="#fdf5f5" d="m15 13.5v-.5l.469-.156-.281.094.187-.063q.188-.063.344-.156l.078-.047-.078.047.594.594.125-.125-.125.125q-.125.125-.188.313l-.062.188.188-.562-.25.75h-1v-.5"/><path fill="#fef7f7" d="m16.13 13.625q.125-.375.5-.5l.375-.125v1h-1l.125-.375"/><path fill="#fefcfc" d="m17 13.5v-.5h.5q.5 0 .5.5v.5h-1v-.5"/></svg>